<?xml version="1.0" encoding="utf-8"?>
<!-- Generator: Adobe Illustrator 16.0.3, SVG Export Plug-In . SVG Version: 6.00 Build 0)  -->
<!DOCTYPE svg PUBLIC "-//W3C//DTD SVG 1.1//EN" "http://www.w3.org/Graphics/SVG/1.1/DTD/svg11.dtd">
<svg version="1.1" id="Capa_2" xmlns="http://www.w3.org/2000/svg" xmlns:xlink="http://www.w3.org/1999/xlink" x="0px" y="0px"
	 width="453.645px" height="232.794px" viewBox="0 0 453.645 232.794" enable-background="new 0 0 453.645 232.794"
	 xml:space="preserve">
<rect x="11.198" y="11.198" opacity="0.2" fill="#208211" width="431.25" height="210.398"/>
<path d="M0,0v232.794h453.645V0H0z M442.448,221.597H11.198V11.198h431.25V221.597z"/>
<rect x="194.453" y="39.054" stroke="#565656" stroke-miterlimit="10" width="33.02" height="33.021"/>
<rect x="98.808" y="39.054" stroke="#565656" stroke-miterlimit="10" width="33.022" height="33.021"/>
<rect x="93.432" y="99.661" stroke="#565656" stroke-miterlimit="10" width="139.258" height="39.762"/>
<rect x="178.73" y="165.169" stroke="#565656" stroke-miterlimit="10" width="33.021" height="33.02"/>
<rect x="83.084" y="165.169" stroke="#565656" stroke-miterlimit="10" width="33.021" height="33.02"/>
<rect x="11.203" y="13.039" fill="none" width="431.243" height="210.4"/>
<text transform="matrix(1 0 0 1 107.3569 66.3511)"><tspan x="0" y="0" fill="#FFFFFF" font-family="'Unispace-Bold'" font-size="26.0703">W</tspan><tspan x="15.929" y="0" font-family="'Unispace-Bold'" font-size="26.0703"> and </tspan><tspan x="95.572" y="0" fill="#FFFFFF" font-family="'Unispace-Bold'" font-size="26.0703">D </tspan><tspan x="127.43" y="0" font-family="'Unispace-Bold'" font-size="26.0703">to MOVE</tspan><tspan x="-7.965" y="62.569" fill="#FFFFFF" font-family="'Unispace-Bold'" font-size="26.0703">Spacebar </tspan><tspan x="135.394" y="62.569" font-family="'Unispace-Bold'" font-size="26.0703">to JUMP</tspan><tspan x="-15.929" y="125.138" fill="#FFFFFF" font-family="'Unispace-Bold'" font-size="26.0703">Q</tspan><tspan x="0" y="125.138" font-family="'Unispace-Bold'" font-size="26.0703"> and </tspan><tspan x="79.644" y="125.138" fill="#FFFFFF" font-family="'Unispace-Bold'" font-size="26.0703">E </tspan><tspan x="111.501" y="125.138" font-family="'Unispace-Bold'" font-size="26.0703">to ATTACK</tspan></text>
</svg>
