<?xml version="1.0" encoding="utf-8"?>
<!-- Generator: Adobe Illustrator 16.0.3, SVG Export Plug-In . SVG Version: 6.00 Build 0)  -->
<!DOCTYPE svg PUBLIC "-//W3C//DTD SVG 1.1//EN" "http://www.w3.org/Graphics/SVG/1.1/DTD/svg11.dtd">
<svg version="1.1" id="Capa_1" xmlns="http://www.w3.org/2000/svg" xmlns:xlink="http://www.w3.org/1999/xlink" x="0px" y="0px"
	 width="600px" height="150px" viewBox="0 0 600 150" enable-background="new 0 0 600 150" xml:space="preserve">
<path fill="#E44F25" d="M300.09,27.535l-0.09,0.08l-0.09-0.08C299.91,27.535,299.97,27.535,300.09,27.535z"/>
<path fill="#E44F25" d="M300.09,27.535l-0.09,0.08l-0.09-0.08C299.91,27.535,299.97,27.535,300.09,27.535z"/>
<path fill="#E44F25" d="M300.09,122.465c-0.12,0-0.18,0-0.18,0l0.09-0.08L300.09,122.465z"/>
<path fill="#E44F25" d="M300.09,122.465c-0.12,0-0.18,0-0.18,0l0.09-0.08L300.09,122.465z"/>
<linearGradient id="SVGID_1_" gradientUnits="userSpaceOnUse" x1="240.2598" y1="75" x2="359.7402" y2="75">
	<stop  offset="0" style="stop-color:#9B0E82"/>
	<stop  offset="1" style="stop-color:#691183"/>
</linearGradient>
<path fill="url(#SVGID_1_)" d="M359.74,71.865v6.27c0,0-5.591-0.59-9.12,6.15c-3.44,6.56-4.38,15.6-4.21,23.35s-1,14.83-14.08,14.83
	h-32.24l-0.09-0.08l-0.09,0.08h-32.24c-13.08,0-14.25-7.08-14.08-14.83s-0.77-16.79-4.21-23.35c-3.53-6.74-9.12-6.15-9.12-6.15
	v-6.27c0,0,5.59,0.59,9.12-6.14c3.44-6.561,4.38-15.61,4.21-23.36s1-14.83,14.08-14.83h32.24l0.09,0.08l0.09-0.08h32.24
	c13.08,0,14.25,7.08,14.08,14.83s0.77,16.8,4.21,23.36C354.149,72.455,359.74,71.865,359.74,71.865z"/>
<g>
	<path fill="#FFFFFF" d="M280.934,100.647V49.326h20.002c3.384,0,6.19,0.352,8.422,1.053c2.23,0.702,4.16,2.169,5.79,4.399
		c1.629,2.231,2.444,4.851,2.444,7.858c0,2.832-0.828,5.295-2.482,7.388s-3.935,3.428-6.842,4.004
		c3.609,0.627,6.341,2.093,8.195,4.399c1.855,2.306,2.783,5.037,2.783,8.195c0,3.961-1.298,7.288-3.892,9.982
		c-2.595,2.695-6.586,4.042-11.976,4.042H280.934z M289.693,70.87h11.279c2.307,0,4.13-0.689,5.471-2.067
		c1.341-1.379,2.012-3.134,2.012-5.264c0-2.356-0.765-4.092-2.293-5.208c-1.529-1.115-3.322-1.673-5.377-1.673h-11.092V70.87z
		 M289.693,92.939h11.957c2.531,0,4.53-0.663,5.996-1.992c1.467-1.328,2.199-3.121,2.199-5.377c0-2.155-0.745-3.922-2.236-5.301
		c-1.492-1.378-3.466-2.068-5.922-2.068h-11.994V92.939z"/>
</g>
</svg>
