<?xml version="1.0" encoding="utf-8"?>
<!-- Generator: Adobe Illustrator 16.0.3, SVG Export Plug-In . SVG Version: 6.00 Build 0)  -->
<!DOCTYPE svg PUBLIC "-//W3C//DTD SVG 1.1//EN" "http://www.w3.org/Graphics/SVG/1.1/DTD/svg11.dtd">
<svg version="1.1" id="Capa_2" xmlns="http://www.w3.org/2000/svg" xmlns:xlink="http://www.w3.org/1999/xlink" x="0px" y="0px"
	 width="600px" height="400px" viewBox="0 0 600 400" enable-background="new 0 0 600 400" xml:space="preserve">
<polygon fill="#885038" points="301.018,307.324 301.018,300.2 293.501,300.2 293.501,285.559 278.628,285.559 278.628,277.81 
	270.997,277.81 270.997,270.292 263.634,270.292 263.634,240.426 256.002,240.426 256.002,225.669 248.604,225.669 248.604,197.524 
	256.002,197.524 256.002,182.531 263.518,182.531 263.518,175.017 270.997,175.017 270.997,165.775 263.634,165.775 
	263.634,158.023 256.117,158.023 256.117,130.157 263.399,130.157 263.399,107.445 270.997,107.405 270.997,100.13 278.391,100.13 
	278.391,92.772 321.645,92.772 321.645,100.091 329.007,100.091 329.007,107.41 336.64,107.41 336.64,129.92 344.036,129.92 
	344.036,157.904 336.286,157.904 336.286,165.541 328.77,165.541 328.77,182.531 336.401,182.531 336.401,197.408 344.036,197.408 
	344.036,204.688 351.396,204.688 351.396,225.669 344.036,225.669 344.036,232.909 329.123,232.909 329.123,250.062 
	336.524,250.062 336.524,270.292 329.123,270.292 329.123,270.331 329.007,270.331 329.007,279.81 329.123,279.81 329.123,287.166 
	336.286,287.166 336.286,307.324 "/>
<g>
	<path fill="#111111" d="M257.52,148.85l-8.41,23.46l-4.97,13.88l-8.41,23.46l-12.53-4.49l8.41-23.45l-26.88-9.64l-0.55-0.2
		l-4.9-1.81l0.72-2l-1.69-0.56l0.97-2.51l-2.09-0.64l2.09-5.33l2.08,0.74l0.14,0.05l0.12-0.32l0.69-1.74l1.31,0.42l0.44,0.14
		l0.19-0.38l0.58-1.19l3.36,0.97h0.02c0.32,0.06,0.63,0.16,0.94,0.27c0.08,0.03,0.14,0.05,0.21,0.08l27.23,9.76l8.41-23.46
		L257.52,148.85z"/>
	<polygon fill="#5E5E5E" points="387.03,228.41 386.44,230 384.86,229.43 384.34,230.91 382.96,230.42 382.41,232 380.82,231.54 
		380.25,233.16 378.59,232.56 378,234.16 376.11,233.5 244.14,186.19 249.11,172.31 380.86,219.54 381.33,219.68 383.12,220.19 
		382.45,222.03 382.37,222.23 382.56,222.27 383.97,222.59 383.43,224.12 383.43,224.13 383.44,224.13 385.06,224.47 384.47,226.16 
		385.88,226.56 385.45,227.76 	"/>
	<polygon fill="#4C4C4C" points="381.33,219.68 380.86,219.54 381.26,219.52 	"/>
</g>
<polygon fill="#885038" points="345.036,196.408 345.036,226.669 330.007,226.669 330.007,219.113 322.528,219.113 322.528,203.884 
	315.171,203.884 315.171,189.127 315.012,189.127 315.012,181.531 322.567,181.531 322.567,203.884 330.007,203.884 330.007,211.4 
	337.797,211.4 337.797,196.408 "/>
<polygon fill="#181818" points="337.286,293.684 337.286,308.324 300.018,308.324 300.018,301.2 330.007,301.2 330.007,293.684 "/>
<polygon fill="#885038" points="307.258,264.053 307.258,271.331 300.018,271.331 300.018,293.684 292.501,293.684 292.501,278.81 
	277.391,278.81 277.391,271.292 269.997,271.292 269.997,248.942 277.391,248.942 277.391,264.053 "/>
<polygon fill="#D08860" points="322.528,271.292 322.528,286.328 314.936,286.328 314.936,278.69 307.496,278.69 307.496,293.684 
	300.018,293.684 300.018,271.331 307.258,271.331 307.258,264.053 314.936,264.053 314.936,271.292 "/>
<rect x="269.997" y="271.292" fill="#181818" width="7.394" height="7.518"/>
<rect x="277.628" y="278.81" fill="#181818" width="14.873" height="7.749"/>
<rect x="292.501" y="293.684" fill="#181818" width="7.517" height="7.517"/>
<polygon fill="#885038" points="337.286,286.166 337.286,293.684 330.007,293.684 330.007,286.166 322.528,286.166 322.528,278.81 
	330.123,278.81 330.123,286.166 "/>
<polygon fill="#D08860" points="330.123,248.942 330.123,271.331 330.007,271.331 322.528,271.292 322.528,248.942 "/>
<rect x="322.528" y="271.292" fill="#181818" width="7.479" height="7.518"/>
<rect x="330.123" y="249.062" fill="#885038" width="7.401" height="7.239"/>
<polygon fill="#F8D098" points="322.528,248.942 322.528,271.292 314.936,271.292 314.936,264.053 307.258,264.053 307.258,248.942 
	"/>
<polygon fill="#D08860" points="292.501,241.349 292.501,264.053 277.391,264.053 277.391,248.942 284.83,248.942 284.83,241.349 
	"/>
<polygon fill="#F8D098" points="284.83,218.916 284.83,241.349 262.634,241.349 262.634,241.426 255.002,241.426 255.002,226.669 
	262.399,226.669 262.399,218.955 255.002,218.916 255.002,196.487 262.518,196.487 262.518,181.531 277.391,181.531 
	277.391,196.328 269.916,196.328 269.916,211.4 262.557,211.4 262.557,226.669 269.916,226.669 269.916,218.916 "/>
<rect x="247.604" y="196.524" fill="#181818" width="7.398" height="30.145"/>
<rect x="255.002" y="181.531" fill="#885038" width="7.516" height="14.956"/>
<polygon fill="#885038" points="284.83,173.897 284.83,181.531 262.518,181.531 262.518,174.017 269.997,174.017 269.997,159.023 
	277.391,159.023 277.391,173.897 "/>
<rect x="262.634" y="159.023" fill="#D08860" width="7.363" height="7.751"/>
<polygon fill="#F8D098" points="270.112,144.03 270.112,159.023 262.634,159.023 262.634,151.664 255.117,151.664 255.117,136.514 
	262.399,136.514 262.399,144.03 "/>
<rect x="255.117" y="151.664" fill="#D08860" width="7.517" height="7.359"/>
<rect x="255.117" y="129.157" fill="#D08860" width="7.282" height="7.357"/>
<polygon fill="#D08860" points="292.543,91.772 292.543,99.13 277.628,99.13 277.628,106.41 270.112,106.41 270.112,136.514 
	262.399,136.514 262.399,106.45 269.997,106.41 269.997,99.13 277.391,99.13 277.391,91.772 "/>
<polygon fill="#885038" points="345.036,128.92 345.036,144.03 337.401,144.03 337.401,136.514 330.007,136.514 330.007,106.646 
	322.645,106.646 322.645,99.13 292.543,99.13 292.543,91.772 322.645,91.772 322.645,99.091 330.007,99.091 330.007,106.41 
	337.64,106.41 337.64,128.92 "/>
<polygon fill="#F8D098" points="314.951,106.614 314.951,129.124 307.396,129.124 307.396,136.481 299.999,136.481 299.999,143.998 
	292.44,144.077 277.33,144.077 277.33,136.481 270.051,136.481 270.051,106.377 277.568,106.377 277.568,99.098 307.396,99.098 
	307.396,106.614 "/>
<polygon fill="#D08860" points="330.007,106.646 330.007,136.514 322.528,136.514 322.528,144.03 307.496,144.03 307.496,159.023 
	300.018,159.023 300.018,166.775 292.501,166.775 292.501,144.109 300.06,144.03 300.06,136.514 307.457,136.514 307.457,129.157 
	315.012,129.157 315.012,106.646 307.457,106.646 307.457,99.13 322.645,99.13 322.645,106.646 "/>
<polygon fill="#181818" points="345.036,144.03 345.036,158.904 337.286,158.904 337.286,166.541 329.77,166.541 329.77,173.897 
	322.528,173.897 322.528,151.664 330.007,151.664 330.007,136.514 337.401,136.514 337.401,144.03 "/>
<polygon fill="#885038" points="330.007,136.514 330.007,151.664 307.496,151.664 307.496,144.03 322.528,144.03 322.528,136.514 
	"/>
<rect x="315.012" y="151.664" fill="#FFFFFF" width="7.517" height="15.111"/>
<rect x="277.391" y="151.664" fill="#FFFFFF" width="7.555" height="15.111"/>
<polygon fill="#D08860" points="277.391,136.514 277.391,159.023 270.112,159.023 270.112,144.03 262.399,144.03 262.399,136.514 
	"/>
<polygon fill="#D08860" points="292.501,166.775 292.501,181.531 284.83,181.531 284.83,173.897 277.391,173.897 277.391,166.775 
	"/>
<polygon fill="#D08860" points="337.797,196.408 337.797,211.4 330.007,211.4 330.007,203.884 322.567,203.884 322.567,181.531 
	329.77,181.531 329.77,189.088 337.401,189.088 337.401,196.408 "/>
<rect x="329.77" y="181.531" fill="#885038" width="7.632" height="7.557"/>
<rect x="292.543" y="189.127" fill="#D08860" width="22.628" height="7.201"/>
<polygon fill="#181818" points="345.036,226.669 345.036,233.909 330.123,233.909 330.123,241.307 322.528,241.307 322.528,226.354 
	315.171,226.354 315.171,203.884 322.528,203.884 322.528,219.113 330.007,219.113 330.007,226.669 "/>
<rect x="284.83" y="218.916" fill="#181818" width="7.671" height="22.433"/>
<polygon fill="#D08860" points="307.496,218.916 307.496,226.354 292.501,226.314 292.501,218.916 "/>
<rect x="277.391" y="181.531" fill="#885038" width="7.439" height="22.59"/>
<rect x="284.83" y="211.518" fill="#885038" width="7.671" height="7.398"/>
<rect x="269.916" y="204.121" fill="#885038" width="7.475" height="7.279"/>
<rect x="277.391" y="204.121" fill="none" width="7.439" height="14.795"/>
<rect x="307.381" y="173.897" fill="#D08860" width="7.746" height="7.634"/>
<rect x="307.381" y="181.531" fill="#181818" width="7.631" height="7.596"/>
<polygon fill="#885038" points="307.381,181.531 307.381,189.127 292.543,189.127 292.543,196.328 284.83,196.328 284.83,181.531 
	"/>
<polygon fill="#D08860" points="315.127,181.531 315.127,173.897 315.012,166.775 322.528,166.775 322.528,173.897 322.567,181.531 
	"/>
<rect x="307.496" y="211.518" fill="#D08860" width="7.675" height="7.398"/>
<rect x="322.528" y="241.307" fill="#885038" width="7.595" height="7.636"/>
<polygon fill="#D08860" points="322.528,241.349 322.528,248.942 307.258,248.942 307.258,264.053 300.018,264.053 300.018,233.87 
	315.171,233.87 315.171,241.349 "/>
<rect x="345.036" y="203.688" fill="#181818" width="7.359" height="22.981"/>
<rect x="284.945" y="151.664" fill="#181818" width="7.556" height="15.111"/>
<rect x="277.391" y="144.109" fill="#885038" width="15.11" height="7.555"/>
<polygon fill="#885038" points="329.77,173.897 329.77,181.531 322.567,181.531 322.528,173.897 "/>
<rect x="307.496" y="151.664" fill="#181818" width="7.516" height="15.111"/>
<polygon fill="#F8D098" points="315.127,173.897 307.381,173.897 307.381,181.531 292.501,181.531 292.501,166.775 300.018,166.775 
	300.018,159.023 307.496,159.023 307.496,166.775 315.012,166.775 "/>
<line fill="none" x1="262.38" y1="121.587" x2="270.004" y2="121.587"/>
<polygon fill="#885038" points="262.399,218.955 262.399,226.669 255.002,226.669 255.002,218.916 "/>
<rect x="269.916" y="196.328" fill="#D08860" width="7.475" height="7.793"/>
<polygon fill="#D08860" points="277.391,211.4 277.391,218.916 269.916,218.916 269.916,226.669 262.557,226.669 262.557,211.4 "/>
<rect x="277.391" y="204.121" fill="#181818" width="7.439" height="14.795"/>
<rect x="284.83" y="196.328" fill="#D08860" width="7.671" height="15.189"/>
<rect x="330.123" y="256.301" fill="#181818" width="7.401" height="14.991"/>
<polygon fill="#885038" points="322.528,226.354 322.528,241.349 315.171,241.349 315.171,233.87 300.018,233.87 300.018,248.942 
	292.501,248.942 292.501,226.314 307.496,226.354 307.496,218.916 315.171,218.916 315.171,226.354 "/>
<rect x="300.018" y="293.684" fill="#885038" width="7.479" height="7.517"/>
<polygon fill="#F8D098" points="330.007,293.684 330.007,301.2 307.496,301.2 307.496,278.69 314.936,278.69 314.936,286.328 
	322.528,286.328 322.528,293.684 "/>
<rect x="322.528" y="286.166" fill="#D08860" width="7.479" height="7.518"/>
<polygon fill="#181818" points="284.83,241.349 284.83,248.942 269.997,248.942 269.997,271.292 262.634,271.292 262.634,241.349 
	"/>
<rect x="292.501" y="248.942" fill="#181818" width="7.517" height="15.11"/>
<polygon fill="#F8D098" points="315.171,196.328 315.171,211.518 307.496,211.518 307.496,218.916 292.501,218.916 292.501,196.328 
	"/>
<rect x="255.002" y="226.669" fill="#181818" width="7.632" height="14.68"/>
</svg>
