<?xml version="1.0" encoding="utf-8"?>
<!-- Generator: Adobe Illustrator 16.0.3, SVG Export Plug-In . SVG Version: 6.00 Build 0)  -->
<!DOCTYPE svg PUBLIC "-//W3C//DTD SVG 1.1//EN" "http://www.w3.org/Graphics/SVG/1.1/DTD/svg11.dtd">
<svg version="1.1" id="Capa_2" xmlns="http://www.w3.org/2000/svg" xmlns:xlink="http://www.w3.org/1999/xlink" x="0px" y="0px"
	 width="600px" height="600px" viewBox="0 0 600 600" enable-background="new 0 0 600 600" xml:space="preserve">
<path fill="#FFFFFF" d="M584.736,306.912c0,126.589-82.602,233.884-196.857,270.911c-10.527-0.013-17.119-5.988-17.119-12.825
	v-84.434c0-30.081-17.434-47.405-17.434-47.405c119.014-14.754,128.531-87.511,129.447-136.735
	c0.902-49.225-28.264-81.125-28.264-81.125c14.59-37.37-4.553-76.777-4.553-76.777c-36.468-2.038-76.571,31.203-76.571,31.203
	c-80.223-22.793-146.771-1.832-146.771-1.832c-49.225-33.719-77.474-29.166-77.474-29.166c-18.24,36.467-4.567,77.487-4.567,77.487
	c-38.286,31.9-34.635,126.699-2.734,169.551c31.914,42.839,104.383,47.393,104.383,47.393
	c-15.041,7.984-17.557,37.383-17.557,37.383c-11.158,7.056-39.188,7.972-51.494,5.237c-12.306-2.735-36.016-34.184-44.671-43.988
	c-8.655-9.79-24.844-13.892-32.365-13.892s-11.623,1.135-12.306,5.004c-0.684,3.884,4.786,8.437,14.589,14.139
	c9.804,5.688,21.426,25.979,26.431,35.77c5.018,9.804,11.854,22.343,22.11,28.715c10.255,6.385,24.844,12.538,43.987,12.538
	c19.143,0,32.584-3.65,32.584-3.65s0,30.546,0,51.057c0,19.607-17.968,15.382-19.553,14.973c-0.068-0.014-0.11-0.028-0.11-0.028
	C95.828,538.116,15.264,431.928,15.264,306.912C15.264,149.654,142.742,22.175,300,22.175
	C457.258,22.175,584.736,149.654,584.736,306.912z"/>
<path d="M331.562,403.615c-0.014,0-0.014,0-0.028,0"/>
</svg>
