<?xml version="1.0" encoding="utf-8"?>
<!-- Generator: Adobe Illustrator 16.0.3, SVG Export Plug-In . SVG Version: 6.00 Build 0)  -->
<!DOCTYPE svg PUBLIC "-//W3C//DTD SVG 1.1//EN" "http://www.w3.org/Graphics/SVG/1.1/DTD/svg11.dtd">
<svg version="1.1" id="Capa_1" xmlns="http://www.w3.org/2000/svg" xmlns:xlink="http://www.w3.org/1999/xlink" x="0px" y="0px"
	 width="600px" height="150px" viewBox="0 0 600 150" enable-background="new 0 0 600 150" xml:space="preserve">
<rect x="253.5" y="28.5" fill="#E76F00" width="93" height="93"/>
<path fill="none" d="M310.454,67.311"/>
<path fill="#FFFFFF" d="M317.854,95.931h-0.272v-0.153h0.735v0.153h-0.271v0.763h-0.191V95.931z M319.322,95.97h-0.004l-0.271,0.724
	h-0.124l-0.271-0.724h-0.002v0.724h-0.18v-0.915h0.264l0.25,0.647l0.25-0.647h0.264v0.915h-0.176V95.97z"/>
<path fill="#FFFFFF" d="M293.395,77.209c0,0-1.9,1.104,1.354,1.479c3.941,0.449,5.957,0.385,10.301-0.438
	c0,0,1.143,0.718,2.737,1.336C298.047,83.763,285.745,79.347,293.395,77.209 M292.205,71.763c0,0-2.133,1.579,1.124,1.916
	c4.211,0.434,7.537,0.47,13.291-0.64c0,0,0.796,0.808,2.047,1.248C296.893,77.731,283.777,74.56,292.205,71.763"/>
<path fill="#FFFFFF" d="M302.236,62.523c2.4,2.762-0.629,5.249-0.629,5.249s6.093-3.146,3.295-7.083
	c-2.614-3.673-4.618-5.499,6.231-11.791C311.133,48.897,294.104,53.15,302.236,62.523"/>
<path fill="#FFFFFF" d="M315.117,81.238c0,0,1.406,1.159-1.549,2.057c-5.621,1.701-23.396,2.218-28.334,0.066
	c-1.774-0.771,1.554-1.844,2.601-2.066c1.092-0.237,1.716-0.193,1.716-0.193c-1.974-1.391-12.759,2.73-5.479,3.91
	C303.928,88.232,320.268,83.562,315.117,81.238 M294.309,66.119c0,0-9.041,2.147-3.201,2.928c2.466,0.33,7.381,0.255,11.959-0.127
	c3.742-0.316,7.498-0.987,7.498-0.987s-1.318,0.565-2.273,1.216c-9.182,2.415-26.918,1.292-21.813-1.177
	C290.797,65.883,294.309,66.119,294.309,66.119 M310.527,75.186c9.334-4.85,5.019-9.512,2.006-8.883
	c-0.738,0.154-1.067,0.287-1.067,0.287s0.274-0.43,0.798-0.615c5.959-2.096,10.543,6.179-1.924,9.456
	C310.34,75.431,310.484,75.301,310.527,75.186"/>
<path fill="#FFFFFF" d="M304.9,38.737c0,0,5.168,5.171-4.902,13.121c-8.077,6.378-1.842,10.017-0.003,14.171
	c-4.714-4.254-8.175-7.998-5.853-11.482C297.549,49.432,306.986,46.951,304.9,38.737"/>
<path fill="#FFFFFF" d="M295.227,88.328c8.959,0.573,22.715-0.317,23.041-4.558c0,0-0.625,1.606-7.404,2.884
	c-7.646,1.439-17.077,1.271-22.67,0.35C288.193,87.002,289.338,87.951,295.227,88.328"/>
<path fill="#FFFFFF" d="M293.758,104.526c-0.845,0.731-1.738,1.144-2.539,1.144c-1.144,0-1.761-0.686-1.761-1.784
	c0-1.189,0.662-2.06,3.317-2.06h0.981L293.758,104.526 M296.09,107.156v-8.145c0-2.08-1.188-3.453-4.048-3.453
	c-1.67,0-3.133,0.412-4.321,0.938l0.342,1.442c0.938-0.345,2.148-0.664,3.338-0.664c1.648,0,2.357,0.664,2.357,2.035v1.028h-0.822
	c-4.004,0-5.812,1.557-5.812,3.889c0,2.014,1.19,3.159,3.433,3.159c1.439,0,2.516-0.597,3.521-1.466l0.183,1.234h1.83V107.156z
	 M303.873,107.156h-2.909l-3.5-11.392h2.541l2.172,6.999l0.483,2.105c1.099-3.043,1.876-6.133,2.265-9.104h2.472
	C306.732,99.516,305.541,103.633,303.873,107.156 M315.029,104.526c-0.846,0.731-1.74,1.144-2.541,1.144
	c-1.141,0-1.762-0.686-1.762-1.784c0-1.189,0.664-2.06,3.318-2.06h0.984V104.526 M317.361,107.156v-8.145
	c0-2.08-1.188-3.453-4.047-3.453c-1.67,0-3.135,0.412-4.323,0.938l0.343,1.442c0.938-0.345,2.15-0.664,3.34-0.664
	c1.646,0,2.355,0.664,2.355,2.035v1.028h-0.823c-4.005,0-5.812,1.557-5.812,3.889c0,2.014,1.189,3.159,3.431,3.159
	c1.442,0,2.517-0.597,3.524-1.466l0.183,1.234h1.829V107.156z M284.566,109.09c-0.664,0.972-1.737,1.74-2.914,2.174l-1.15-1.354
	c0.895-0.459,1.663-1.201,2.02-1.892c0.309-0.614,0.436-1.406,0.436-3.299V91.713h2.479v12.828
	C285.436,107.072,285.232,108.094,284.566,109.09"/>
</svg>
