<?xml version="1.0" encoding="utf-8"?>
<!-- Generator: Adobe Illustrator 16.0.3, SVG Export Plug-In . SVG Version: 6.00 Build 0)  -->
<!DOCTYPE svg PUBLIC "-//W3C//DTD SVG 1.1//EN" "http://www.w3.org/Graphics/SVG/1.1/DTD/svg11.dtd">
<svg version="1.1" id="Capa_1" xmlns="http://www.w3.org/2000/svg" xmlns:xlink="http://www.w3.org/1999/xlink" x="0px" y="0px"
	 width="145.5px" height="150.625px" viewBox="0 -0.625 145.5 150.625" enable-background="new 0 -0.625 145.5 150.625"
	 xml:space="preserve">
<rect x="26.25" y="28.188" fill="#E76F00" width="93" height="93"/>
<path fill="none" d="M83.204,66.998"/>
<path fill="#FFFFFF" d="M90.604,95.618h-0.273v-0.153h0.735v0.153h-0.271v0.763h-0.191V95.618z M92.072,95.657h-0.004l-0.271,0.724
	h-0.124l-0.27-0.724H91.4v0.724h-0.18v-0.915h0.265l0.25,0.647l0.249-0.647h0.264v0.915h-0.176L92.072,95.657z"/>
<path fill="#FFFFFF" d="M66.145,76.897c0,0-1.901,1.104,1.353,1.479c3.942,0.449,5.957,0.385,10.301-0.438
	c0,0,1.143,0.717,2.737,1.336C70.797,83.45,58.495,79.034,66.145,76.897 M64.955,71.45c0,0-2.133,1.579,1.124,1.916
	c4.211,0.434,7.537,0.47,13.291-0.639c0,0,0.796,0.807,2.047,1.248C69.643,77.419,56.528,74.247,64.955,71.45"/>
<path fill="#FFFFFF" d="M74.987,62.211c2.399,2.762-0.63,5.249-0.63,5.249s6.093-3.145,3.295-7.083
	c-2.614-3.673-4.618-5.499,6.232-11.791C83.883,48.585,66.853,52.838,74.987,62.211"/>
<path fill="#FFFFFF" d="M87.867,80.926c0,0,1.407,1.159-1.549,2.056c-5.621,1.702-23.396,2.218-28.334,0.067
	c-1.774-0.772,1.554-1.844,2.601-2.067c1.092-0.237,1.716-0.193,1.716-0.193c-1.974-1.391-12.759,2.73-5.479,3.91
	C76.678,87.92,93.017,83.249,87.867,80.926 M67.059,65.807c0,0-9.041,2.147-3.202,2.928c2.466,0.33,7.381,0.254,11.959-0.128
	c3.742-0.316,7.499-0.987,7.499-0.987s-1.319,0.565-2.274,1.216c-9.181,2.415-26.918,1.292-21.812-1.177
	C63.547,65.571,67.059,65.807,67.059,65.807 M83.278,74.873c9.333-4.85,5.018-9.511,2.005-8.883
	c-0.738,0.154-1.067,0.288-1.067,0.288s0.274-0.43,0.798-0.616c5.958-2.095,10.542,6.179-1.924,9.456
	C83.09,75.118,83.235,74.988,83.278,74.873"/>
<path fill="#FFFFFF" d="M77.651,38.425c0,0,5.168,5.171-4.903,13.121c-8.077,6.378-1.842,10.016-0.003,14.171
	c-4.714-4.254-8.174-7.998-5.853-11.483C70.299,49.119,79.736,46.638,77.651,38.425"/>
<path fill="#FFFFFF" d="M67.976,88.016c8.959,0.573,22.716-0.318,23.042-4.558c0,0-0.626,1.606-7.404,2.884
	c-7.646,1.439-17.078,1.271-22.671,0.349C60.943,86.69,62.088,87.638,67.976,88.016"/>
<path fill="#FFFFFF" d="M66.508,104.214c-0.845,0.731-1.738,1.144-2.539,1.144c-1.144,0-1.761-0.686-1.761-1.785
	c0-1.189,0.662-2.059,3.317-2.059h0.982V104.214 M68.84,106.844v-8.145c0-2.08-1.187-3.453-4.048-3.453
	c-1.67,0-3.133,0.412-4.322,0.938l0.343,1.442c0.937-0.345,2.148-0.664,3.338-0.664c1.648,0,2.357,0.664,2.357,2.035v1.029h-0.823
	c-4.004,0-5.811,1.556-5.811,3.888c0,2.014,1.191,3.159,3.432,3.159c1.44,0,2.516-0.596,3.521-1.466l0.183,1.235H68.84
	L68.84,106.844z M76.623,106.844h-2.909l-3.5-11.392h2.541l2.172,6.999l0.483,2.105c1.099-3.043,1.876-6.132,2.265-9.104h2.471
	C79.482,99.203,78.291,103.321,76.623,106.844 M87.78,104.214c-0.846,0.731-1.741,1.144-2.542,1.144
	c-1.141,0-1.761-0.686-1.761-1.785c0-1.189,0.663-2.059,3.318-2.059h0.984V104.214 M90.112,106.844v-8.145
	c0-2.08-1.189-3.453-4.047-3.453c-1.671,0-3.135,0.412-4.324,0.938l0.343,1.442c0.937-0.345,2.151-0.664,3.34-0.664
	c1.647,0,2.356,0.664,2.356,2.035v1.029h-0.824c-4.005,0-5.811,1.556-5.811,3.888c0,2.014,1.189,3.159,3.43,3.159
	c1.442,0,2.517-0.596,3.524-1.466l0.183,1.235H90.112L90.112,106.844z M57.317,108.778c-0.665,0.971-1.738,1.739-2.914,2.173
	l-1.151-1.354c0.895-0.458,1.663-1.201,2.019-1.891c0.309-0.614,0.436-1.406,0.436-3.299V91.4h2.478v12.828
	C58.185,106.76,57.982,107.781,57.317,108.778"/>
</svg>
