<?xml version="1.0" encoding="utf-8"?>
<!-- Generator: Adobe Illustrator 16.0.3, SVG Export Plug-In . SVG Version: 6.00 Build 0)  -->
<!DOCTYPE svg PUBLIC "-//W3C//DTD SVG 1.1//EN" "http://www.w3.org/Graphics/SVG/1.1/DTD/svg11.dtd">
<svg version="1.1" id="Capa_1" xmlns="http://www.w3.org/2000/svg" xmlns:xlink="http://www.w3.org/1999/xlink" x="0px" y="0px"
	 width="600px" height="150px" viewBox="0 0 600 150" enable-background="new 0 0 600 150" xml:space="preserve">
<rect x="253.486" y="28.751" fill="#FBCA25" width="92.667" height="92.666"/>
<path fill="#FFFFFF" d="M294.985,71.254c0,0,0,26.136,0,30.299c0,4.164-2.154,4.631-4.631,4.631c-2.478,0-3.267-1.113-5.349-4.2
	l-7.108,3.878c0,0,2.369,8.113,12.421,8.113c10.051,0,13.57-6.032,13.57-12.422s0-30.299,0-30.299H294.985z"/>
<path fill="none" d="M317.082,63.254"/>
<path fill="#FFFFFF" d="M329.375,81.952l6.893-4.38c0,0-3.017-6.82-11.918-6.82c-8.902,0-13.282,5.602-13.282,12.063
	c0,6.46,3.304,10.051,8.974,11.99c5.673,1.938,10.124,3.518,10.053,7.465c-0.072,3.95-9.406,7.325-14.574-1.22l-7.109,4.164
	c0,0,3.231,8.761,15.797,8.761c12.563,0,14.573-7.755,14.573-11.705c0-3.947,0.199-9.203-8.471-12.707
	c-4.859-1.962-10.483-3.948-10.483-6.893c0-2.943,1.58-4.236,4.237-4.236C326.719,78.434,327.868,80.014,329.375,81.952z"/>
</svg>
