<?xml version="1.0" encoding="utf-8"?>
<!-- Generator: Adobe Illustrator 16.0.3, SVG Export Plug-In . SVG Version: 6.00 Build 0)  -->
<!DOCTYPE svg PUBLIC "-//W3C//DTD SVG 1.1//EN" "http://www.w3.org/Graphics/SVG/1.1/DTD/svg11.dtd">
<svg version="1.1" id="Capa_3" xmlns="http://www.w3.org/2000/svg" xmlns:xlink="http://www.w3.org/1999/xlink" x="0px" y="0px"
	 width="600px" height="600px" viewBox="0 0 600 600" enable-background="new 0 0 600 600" xml:space="preserve">
<path fill="#FFFFFF" d="M537.51,27.59H62.49c-19.28,0-34.9,15.62-34.9,34.9v475.02c0,19.271,15.62,34.9,34.9,34.9h475.02
	c19.271,0,34.9-15.63,34.9-34.9V62.49C572.41,43.21,556.78,27.59,537.51,27.59z M189.5,490.5H109V232h80.5V490.5z M149,197.5
	c-25.96,0-47-21.04-47-47s21.04-47,47-47s47,21.04,47,47S174.96,197.5,149,197.5z M491,490.5h-80c0,0,0-114,0-147.5s-18.5-46-46-46
	s-45,23.5-45,58.5s0,135,0,135h-80V232h76v37c0,0,22-42.5,79.5-42.5S491,254,491,331.5S491,490.5,491,490.5z"/>
</svg>
