<?xml version="1.0" encoding="utf-8"?>
<!-- Generator: Adobe Illustrator 16.0.3, SVG Export Plug-In . SVG Version: 6.00 Build 0)  -->
<!DOCTYPE svg PUBLIC "-//W3C//DTD SVG 1.1//EN" "http://www.w3.org/Graphics/SVG/1.1/DTD/svg11.dtd">
<svg version="1.1" id="Capa_1" xmlns="http://www.w3.org/2000/svg" xmlns:xlink="http://www.w3.org/1999/xlink" x="0px" y="0px"
	 width="600px" height="600px" viewBox="0 0 600 600" enable-background="new 0 0 600 600" xml:space="preserve">
<g>
	<path fill="none" stroke="#53AB26" stroke-width="38" stroke-miterlimit="10" d="M490.935,195.815H325.288v299.831
		c-63.838,0-120.535-30.579-156.229-77.874c1.004-0.502,1.969-1.022,2.935-1.582c0.444-0.251,0.869-0.502,1.294-0.773
		c0.889-0.52,1.756-1.08,2.625-1.68c0.367-0.25,0.754-0.52,1.12-0.771c0.811-0.579,1.621-1.179,2.394-1.797
		c0.366-0.288,0.753-0.598,1.119-0.888c0.406-0.328,0.792-0.656,1.178-1.003c0.753-0.637,1.486-1.312,2.201-2.008
		c0.366-0.328,0.732-0.675,1.061-1.042c0.368-0.348,0.715-0.696,1.043-1.062c0.695-0.715,1.371-1.448,2.008-2.202
		c0.328-0.365,0.656-0.752,0.965-1.139c0.637-0.752,1.255-1.544,1.834-2.336c0.907-1.196,1.758-2.432,2.549-3.687
		c0.541-0.849,1.062-1.699,1.563-2.568c0.656-1.139,1.275-2.296,1.854-3.474c0.31-0.617,0.599-1.235,0.889-1.872
		c0.598-1.313,1.139-2.664,1.641-4.016c0.212-0.541,0.405-1.08,0.578-1.621c0.503-1.487,0.966-3.013,1.352-4.557
		c0.174-0.693,0.328-1.37,0.483-2.064c0.02-0.039,0.02-0.077,0.038-0.116c0.135-0.696,0.271-1.39,0.406-2.086
		c0.135-0.771,0.27-1.563,0.366-2.354c0.097-0.599,0.175-1.216,0.231-1.815c0.251-2.276,0.387-4.575,0.387-6.91
		c0-1.254-0.039-2.51-0.115-3.744c-0.021-0.522-0.059-1.043-0.117-1.564c-0.231-2.915-0.694-5.792-1.332-8.57
		c-0.115-0.56-0.251-1.101-0.386-1.642c-0.714-2.761-1.621-5.462-2.702-8.069c-0.193-0.52-0.426-1.042-0.656-1.544
		c-0.502-1.178-1.063-2.335-1.66-3.455c-0.387-0.752-0.791-1.485-1.197-2.2c-0.637-1.101-1.294-2.181-1.988-3.244
		c-0.289-0.424-0.578-0.848-0.868-1.274c-0.31-0.462-0.638-0.907-0.966-1.35c-0.406-0.581-0.83-1.12-1.255-1.661
		c-0.599-0.752-1.216-1.506-1.853-2.239c-0.117-0.134-0.232-0.27-0.348-0.405c-0.482-0.561-0.984-1.102-1.486-1.621
		c-0.773-0.83-1.584-1.641-2.413-2.413c-0.329-0.328-0.676-0.638-1.004-0.928c-0.599-0.558-1.217-1.099-1.834-1.621
		c-10.772-9.053-24.69-14.516-39.882-14.516c-3.919,0-7.761-0.368-11.467-1.062c-28.802-5.367-50.596-30.636-50.596-61.002
		c0-20.134,9.574-38.029,24.438-49.358c0.155-0.117,0.31-0.232,0.483-0.368c0.482-0.368,0.983-0.733,1.505-1.08
		c0.56-0.405,1.14-0.792,1.737-1.179c2.684-1.757,5.521-3.319,8.475-4.652c0.367-0.174,0.733-0.328,1.119-0.482
		c0.656-0.27,1.294-0.541,1.951-0.792c0.539-0.211,1.1-0.425,1.659-0.616c0.753-0.271,1.487-0.522,2.239-0.735
		c0.463-0.153,0.945-0.288,1.429-0.425c1.486-0.442,2.991-0.811,4.517-1.119c0.695-0.134,1.409-0.27,2.123-0.387
		c0.638-0.115,1.275-0.211,1.932-0.288c0.173-0.04,0.366-0.059,0.541-0.077c0.521-0.078,1.042-0.136,1.563-0.174
		c0.521-0.059,1.043-0.117,1.584-0.154c0.693-0.039,1.408-0.096,2.123-0.117c0.868-0.037,1.756-0.057,2.645-0.057
		c1.003,0,2.007,0.02,2.992,0.078c0.25,0,0.482,0.018,0.715,0.037c0.404,0.02,0.79,0.039,1.195,0.077
		c1.023,0.077,2.047,0.174,3.051,0.31c0.598,0.077,1.177,0.154,1.757,0.25c0.637,0.097,1.274,0.213,1.892,0.328
		c0.676,0.137,1.332,0.27,1.988,0.424c0.579,0.117,1.139,0.252,1.718,0.406c0.387,0.077,0.753,0.193,1.139,0.29
		c0.425,0.115,0.831,0.231,1.255,0.368c0.425,0.114,0.83,0.25,1.256,0.385c1.196,0.386,2.374,0.791,3.532,1.255
		c1.756,0.675,3.474,1.429,5.153,2.277c35.674-47.546,92.524-78.296,156.537-78.296
		C395.052,104.354,456.285,140.876,490.935,195.815z"/>
	<path fill="none" stroke="#53AB26" stroke-width="38" stroke-miterlimit="10" d="M520.954,299.999
		c0,108.064-87.602,195.647-195.666,195.647V299.999H520.954z"/>
	<path fill="none" stroke="#53AB26" stroke-width="38" stroke-linecap="square" stroke-miterlimit="10" d="M90.396,398.14
		c11.236,15.907,29.768,26.273,50.713,26.273c10.057,0,19.555-2.394,27.951-6.641"/>
	<path fill="none" stroke="#53AB26" stroke-width="38" stroke-linecap="square" stroke-miterlimit="10" d="M168.751,182.649
		c9.402,4.671,17.451,11.679,23.397,20.269"/>
</g>
<line fill="none" stroke="#53AB26" stroke-width="38" stroke-miterlimit="10" x1="520.954" y1="299.999" x2="520.954" y2="495.646"/>
</svg>
