<?xml version="1.0" encoding="utf-8"?>
<!-- Generator: Adobe Illustrator 16.0.3, SVG Export Plug-In . SVG Version: 6.00 Build 0)  -->
<!DOCTYPE svg PUBLIC "-//W3C//DTD SVG 1.1//EN" "http://www.w3.org/Graphics/SVG/1.1/DTD/svg11.dtd">
<svg version="1.1" id="Capa_1" xmlns="http://www.w3.org/2000/svg" xmlns:xlink="http://www.w3.org/1999/xlink" x="0px" y="0px"
	 width="600px" height="150px" viewBox="0 0 600 150" enable-background="new 0 0 600 150" xml:space="preserve">
<linearGradient id="SVGID_1_" gradientUnits="userSpaceOnUse" x1="253.5002" y1="75.0005" x2="346.5002" y2="75.0005">
	<stop  offset="0" style="stop-color:#71B75E"/>
	<stop  offset="1" style="stop-color:#39632B"/>
</linearGradient>
<rect x="253.5" y="28.501" fill="url(#SVGID_1_)" width="93" height="92.999"/>
<path fill="none" stroke="#FFFFFF" stroke-width="4" stroke-linecap="round" stroke-linejoin="round" stroke-miterlimit="10" d="
	M291.44,65.586c0,0,0,22.375,0,23.875s-1.25,4.25-4.25,4.25c0,0,0.625,0-0.094,0s-1.953-0.156-3.469-1c0,0-5.728-3.313-6.187-3.583
	s-0.771-0.563-0.771-1.563s0-23.771,0-24.333s0.896-1.896,1.959-2.604s19.438-11.521,19.958-11.792s1.932-0.375,2.76,0.078
	s19.391,11.25,20.172,11.703s1.813,1.594,1.813,2.641s0,23.641,0,24.109s-0.234,1.25-1.172,1.953s-20.703,12.078-21.188,12.359
	s-1.125,0.219-1.859-0.156s-6.433-3.703-6.433-3.703"/>
<path fill="none" stroke="#FFFFFF" stroke-width="4" stroke-miterlimit="10" d="M314.066,71.231c0,0-0.166-5.417-8.063-5.417
	s-7.813,4.25-7.813,5.083s0.041,3.475,7.583,4.331s8.938,2.648,8.938,4.898s-2.02,5.188-8.26,5.188s-9.22-2.791-9.22-5.563"/>
</svg>
