<?xml version="1.0" encoding="utf-8"?>
<!-- Generator: Adobe Illustrator 16.0.3, SVG Export Plug-In . SVG Version: 6.00 Build 0)  -->
<!DOCTYPE svg PUBLIC "-//W3C//DTD SVG 1.1//EN" "http://www.w3.org/Graphics/SVG/1.1/DTD/svg11.dtd">
<svg version="1.1" id="Capa_1" xmlns="http://www.w3.org/2000/svg" xmlns:xlink="http://www.w3.org/1999/xlink" x="0px" y="0px"
	 width="600px" height="400px" viewBox="0 0 600 400" enable-background="new 0 0 600 400" xml:space="preserve">
<linearGradient id="SVGID_1_" gradientUnits="userSpaceOnUse" x1="396" y1="-29.5508" x2="396" y2="227.5201" gradientTransform="matrix(1 0 0 -1 -96 295)">
	<stop  offset="0" style="stop-color:#00A0C6"/>
	<stop  offset="1" style="stop-color:#80C41C"/>
</linearGradient>
<rect x="137.5" y="83.929" fill="url(#SVGID_1_)" width="325" height="232.143"/>
<g>
	<path fill="#FFFFFF" d="M217.97,118.464c-0.15,5.555-0.224,11.11-0.224,16.665c0,10.98-4.497,16.468-13.491,16.468
		c-4.447,0-7.796-1.214-10.043-3.646c-2.25-2.43-3.374-6.795-3.374-13.094c0-5.556-0.075-11.021-0.223-16.393h7.018
		c-0.215,5.589-0.322,10.977-0.322,16.17c0,4.547,0.579,7.664,1.736,9.35c1.158,1.686,2.942,2.528,5.358,2.528
		c2.529,0,4.356-0.837,5.481-2.518c1.124-1.677,1.686-4.815,1.686-9.412c0-5.043-0.107-10.417-0.322-16.12h6.721V118.464z"/>
	<path fill="#FFFFFF" d="M246.169,150.755h-6.598c0.364-4.184,0.546-8.416,0.546-12.699c0-2.596-0.385-4.356-1.152-5.283
		c-0.769-0.926-1.938-1.389-3.508-1.389c-1.887,0-3.671,0.645-5.359,1.934c0.083,6.449,0.125,12.262,0.125,17.436h-6.672
		c0.298-5.175,0.446-9.244,0.446-12.204c0-3.951-0.406-7.679-1.216-11.185l6.35-0.695l0.421,2.63h0.397
		c2.266-1.952,4.869-2.926,7.813-2.926c2.546,0,4.583,0.599,6.114,1.799c1.529,1.197,2.293,3.41,2.293,6.634
		c0,0.48-0.021,1.12-0.062,1.922c-0.042,0.803-0.063,1.625-0.063,2.468C246.044,141.429,246.086,145.281,246.169,150.755z"/>
	<path fill="#FFFFFF" d="M258.719,150.755h-6.672c0.231-3.422,0.347-7.349,0.347-11.781c0-4.398-0.282-8.25-0.843-11.557
		l7.144-0.721c-0.215,3.208-0.324,7.301-0.324,12.278C258.37,143.223,258.487,147.148,258.719,150.755z M259.859,119.703
		c0,1.125-0.385,2.109-1.154,2.951c-0.768,0.843-1.84,1.266-3.211,1.266c-1.158,0-2.061-0.364-2.716-1.092
		c-0.653-0.726-0.979-1.603-0.979-2.629c0-1.125,0.384-2.099,1.152-2.926c0.768-0.827,1.849-1.24,3.236-1.24
		c1.173,0,2.079,0.359,2.715,1.079C259.54,117.83,259.859,118.694,259.859,119.703z"/>
	<path fill="#FFFFFF" d="M285.777,127.192c0,0.96-1.481,4.886-4.441,11.78c-2.958,6.895-4.438,10.823-4.438,11.782h-6.771
		c0-1.059-1.315-5.08-3.944-12.066c-2.628-6.986-3.943-10.818-3.943-11.495h7.241c0,0.745,0.815,3.618,2.444,8.619
		c1.628,5.001,2.442,7.941,2.442,8.818h0.322c0-0.794,0.778-3.571,2.332-8.334c1.552-4.761,2.33-7.796,2.33-9.103H285.777
		L285.777,127.192z"/>
	<path fill="#FFFFFF" d="M310.727,136.443c0,0.843-0.051,1.943-0.149,3.299l-15.972,0.273c0.231,1.867,1.034,3.422,2.406,4.663
		c1.373,1.24,3.175,1.858,5.406,1.858c2.479,0,5.117-0.371,7.913-1.116l-0.496,4.813c-2.283,0.827-5.109,1.238-8.482,1.238
		c-4.266,0-7.536-1.199-9.809-3.595c-2.274-2.397-3.41-5.283-3.41-8.656c0-3.521,1.079-6.577,3.237-9.164
		c2.158-2.587,5.154-3.881,8.991-3.881c3.505,0,6.108,0.952,7.813,2.853C309.875,130.93,310.727,133.401,310.727,136.443z
		 M304.922,136.221c0-3.802-1.621-5.704-4.861-5.704c-3.092,0-4.927,1.967-5.506,5.902L304.922,136.221z"/>
	<path fill="#FFFFFF" d="M331.561,127.192l-1.438,5.804c-1.225-0.495-2.465-0.744-3.721-0.744c-2.431,0-4.036,1.091-4.812,3.274
		c0,6.597,0.049,11.672,0.148,15.229h-6.597c0.28-4.978,0.421-9.045,0.421-12.204c0-3.934-0.414-7.662-1.238-11.185l6.322-0.695
		c0.282,1.819,0.423,2.887,0.423,3.202h0.396c1.521-2.333,3.549-3.498,6.076-3.498C328.732,126.374,330.073,126.646,331.561,127.192
		z"/>
	<path fill="#FFFFFF" d="M351.625,143.984c0,4.959-3.674,7.44-11.012,7.44c-2.679,0-5.02-0.289-7.02-0.869l0.842-4.885
		c2.068,0.744,4.127,1.117,6.178,1.117c1.983,0,3.359-0.166,4.128-0.495c0.769-0.332,1.153-0.885,1.153-1.663
		c0-1.207-1.388-2.355-4.166-3.448c-2.43-0.959-4.199-1.901-5.308-2.826c-1.521-1.292-2.28-2.869-2.28-4.739
		c0-2.199,0.818-3.969,2.453-5.308c1.639-1.338,4.021-2.009,7.145-2.009c2.928,0,5.226,0.258,6.896,0.771l-0.843,4.91
		c-1.87-0.729-3.885-1.091-6.053-1.091c-2.646,0-3.971,0.677-3.971,2.032c0,0.694,0.285,1.252,0.847,1.674
		c0.56,0.422,1.71,0.955,3.447,1.6c2.397,0.878,4.142,1.777,5.233,2.704C350.848,140.221,351.625,141.917,351.625,143.984z"/>
	<path fill="#FFFFFF" d="M363.107,150.755h-6.672c0.232-3.422,0.347-7.349,0.347-11.781c0-4.398-0.282-8.25-0.844-11.557
		l7.143-0.721c-0.215,3.208-0.322,7.301-0.322,12.278C362.76,143.223,362.876,147.148,363.107,150.755z M364.248,119.703
		c0,1.125-0.385,2.109-1.154,2.951c-0.768,0.843-1.839,1.266-3.211,1.266c-1.157,0-2.062-0.364-2.715-1.092
		c-0.654-0.726-0.98-1.603-0.98-2.629c0-1.125,0.385-2.099,1.154-2.926c0.766-0.827,1.848-1.24,3.235-1.24
		c1.173,0,2.08,0.359,2.716,1.079C363.931,117.83,364.248,118.694,364.248,119.703z"/>
	<path fill="#FFFFFF" d="M383.418,146.116l-0.42,4.414c-1.157,0.495-2.615,0.745-4.365,0.745c-2.678,0-4.697-0.728-6.05-2.183
		c-1.357-1.456-2.034-4.258-2.034-8.409c0-2.498,0.017-5.324,0.049-8.484c-0.844,0-1.984,0.051-3.425,0.15l0.176-4.886
		c1.272,0.1,2.455,0.148,3.548,0.148c0.017-0.876,0.081-3.183,0.197-6.919l5.878-0.719c-0.249,3.29-0.372,5.836-0.372,7.639
		c1.389,0,3.463-0.066,6.224-0.197l-0.198,4.935c-2.513-0.1-4.557-0.15-6.125-0.15c-0.033,2.2-0.049,4.507-0.049,6.92
		c0,2.944,0.297,4.916,0.893,5.917c0.596,1,1.646,1.499,3.152,1.499C381.401,146.536,382.378,146.397,383.418,146.116z"/>
	<path fill="#FFFFFF" d="M408.396,127.192c0,1.075-1.182,4.481-3.548,10.219c-2.695,6.597-4.358,11.095-4.985,13.491
		c-1.074,4.133-2.521,6.986-4.341,8.556c-1.753,1.523-4.381,2.283-7.888,2.283l-0.495-4.788c2.05,0,3.737-0.582,5.06-1.749
		c1.324-1.165,1.982-2.724,1.982-4.675c0-1.967-1.486-6.27-4.463-12.908c-2.976-6.639-4.464-10.116-4.464-10.431h7.664
		c0,0.579,0.753,3.381,2.257,8.408c1.506,5.026,2.26,8.101,2.26,9.226h0.346c0-0.96,0.684-3.791,2.045-8.495
		c1.366-4.704,2.049-7.75,2.049-9.139h6.521V127.192z"/>
	<path fill="#FFFFFF" d="M206.176,211.706h-7.02c0.165-5.474,0.249-10.22,0.249-14.236h-12.5c0,3.604,0.083,8.349,0.248,14.236
		h-7.019c0.215-5.456,0.323-11.087,0.323-16.89c0-5.87-0.108-11.004-0.323-15.401h7.019c-0.198,4.645-0.298,8.945-0.298,12.896
		h12.599c0-3.489-0.099-7.788-0.297-12.896h7.02c-0.233,4.199-0.347,9.333-0.347,15.401
		C205.829,201.149,205.945,206.779,206.176,211.706z"/>
	<path fill="#FFFFFF" d="M236.41,199.38c0,4.166-1.283,7.424-3.846,9.771c-2.563,2.35-5.58,3.522-9.052,3.522
		c-3.308,0-6.143-1.07-8.508-3.213c-2.365-2.141-3.546-5.153-3.546-9.039c0-4.182,1.291-7.457,3.87-9.821
		c2.579-2.365,5.604-3.546,9.076-3.546c3.29,0,6.114,1.079,8.47,3.236C235.231,192.447,236.41,195.477,236.41,199.38z
		 M229.937,200.124c0-2.396-0.563-4.409-1.688-6.039c-1.125-1.629-2.588-2.444-4.391-2.444c-1.751,0-3.177,0.76-4.277,2.283
		c-1.099,1.52-1.649,3.422-1.649,5.704c0,2.398,0.562,4.411,1.688,6.039c1.123,1.629,2.587,2.444,4.389,2.444
		c1.752,0,3.178-0.761,4.277-2.281C229.386,204.307,229.937,202.406,229.937,200.124z"/>
	<path fill="#FFFFFF" d="M277.63,211.706h-6.572c0.346-4.185,0.521-8.252,0.521-12.202c0-2.96-0.382-4.894-1.142-5.805
		c-0.76-0.909-1.976-1.364-3.645-1.364c-1.34,0-2.754,0.487-4.243,1.464c-0.065,2.066-0.099,3.917-0.099,5.555
		c0,2.763,0.049,6.879,0.149,12.352h-6.646c0.362-4.53,0.545-8.938,0.545-13.219c0-2.216-0.31-3.796-0.929-4.739
		c-0.622-0.941-1.906-1.413-3.857-1.413c-1.803,0-3.299,0.603-4.491,1.81c0.083,6.545,0.125,12.4,0.125,17.56h-6.671
		c0.298-5.16,0.446-9.228,0.446-12.203c0-3.87-0.405-7.599-1.216-11.187l6.35-0.693l0.421,2.629h0.397
		c2.149-1.95,4.571-2.928,7.267-2.928c3.371,0,5.745,0.978,7.116,2.928h0.397c2.446-1.95,4.87-2.928,7.266-2.928
		c2.812,0,4.932,0.608,6.361,1.824c1.43,1.215,2.146,3.419,2.146,6.61c0,0.315-0.018,0.914-0.05,1.797
		c-0.034,0.885-0.05,1.485-0.05,1.798C277.53,202.116,277.563,206.232,277.63,211.706z"/>
	<path fill="#FFFFFF" d="M304.688,197.396c0,0.842-0.05,1.943-0.148,3.297l-15.973,0.273c0.232,1.87,1.034,3.423,2.405,4.663
		c1.373,1.24,3.175,1.86,5.408,1.86c2.48,0,5.116-0.374,7.912-1.116l-0.495,4.812c-2.282,0.826-5.109,1.238-8.483,1.238
		c-4.266,0-7.536-1.198-9.809-3.596c-2.272-2.397-3.41-5.283-3.41-8.655c0-3.522,1.079-6.577,3.235-9.165
		c2.159-2.587,5.155-3.88,8.991-3.88c3.505,0,6.108,0.95,7.813,2.853C303.836,191.881,304.688,194.354,304.688,197.396z
		 M298.884,197.171c0-3.802-1.62-5.703-4.861-5.703c-3.091,0-4.928,1.967-5.506,5.902L298.884,197.171z"/>
	<path fill="#FFFFFF" d="M345.607,188.145c0,0.942-1.374,4.812-4.128,11.606c-2.751,6.794-4.13,10.781-4.13,11.955h-5.777
		c0-0.76-0.679-3.102-2.035-7.02c-1.688-4.894-2.761-8.226-3.224-9.996h-0.396c-0.432,1.703-1.455,4.995-3.076,9.872
		c-1.307,3.87-1.959,6.25-1.959,7.144h-5.805c0-1.008-1.311-5.03-3.931-12.066c-2.621-7.035-3.933-10.866-3.933-11.495h7.143
		c0,0.678,0.726,3.518,2.171,8.52c1.446,5,2.171,7.973,2.171,8.915h0.372c0-1.141,0.825-4.104,2.479-8.891
		c1.652-4.788,2.48-7.635,2.48-8.544h5.827c0,0.629,0.807,3.479,2.417,8.556c1.613,5.076,2.42,8.035,2.42,8.879h0.348
		c0-0.927,0.73-3.739,2.194-8.445c1.463-4.704,2.195-7.701,2.195-8.99H345.607z"/>
	<path fill="#FFFFFF" d="M373.064,199.38c0,4.166-1.281,7.424-3.844,9.771c-2.563,2.35-5.58,3.522-9.053,3.522
		c-3.308,0-6.143-1.07-8.507-3.213c-2.364-2.141-3.546-5.153-3.546-9.039c0-4.182,1.289-7.457,3.869-9.821
		c2.578-2.365,5.604-3.546,9.078-3.546c3.288,0,6.113,1.079,8.469,3.236C371.887,192.447,373.064,195.477,373.064,199.38z
		 M366.592,200.124c0-2.396-0.562-4.409-1.688-6.039c-1.125-1.629-2.588-2.444-4.389-2.444c-1.755,0-3.18,0.76-4.279,2.283
		c-1.102,1.52-1.65,3.422-1.65,5.704c0,2.398,0.563,4.411,1.688,6.039c1.123,1.629,2.587,2.444,4.39,2.444
		c1.753,0,3.178-0.761,4.278-2.281C366.043,204.307,366.592,202.406,366.592,200.124z"/>
	<path fill="#FFFFFF" d="M393.897,188.145l-1.438,5.804c-1.224-0.495-2.465-0.745-3.721-0.745c-2.431,0-4.034,1.093-4.812,3.275
		c0,6.596,0.049,11.672,0.146,15.229h-6.596c0.281-4.978,0.423-9.045,0.423-12.203c0-3.935-0.413-7.664-1.24-11.186l6.325-0.694
		c0.281,1.819,0.422,2.885,0.422,3.199h0.395c1.524-2.332,3.549-3.498,6.078-3.498C391.069,187.325,392.41,187.6,393.897,188.145z"
		/>
	<path fill="#FFFFFF" d="M419.865,211.706h-7.59c0-0.61-1.255-2.683-3.77-6.213c-2.514-3.53-4.116-5.295-4.811-5.295h-0.322
		c0,3.391,0.099,7.224,0.297,11.508h-6.572c0.197-7.722,0.296-13.865,0.296-18.429c0-6.315-0.256-11.796-0.769-16.443l7.045-0.396
		c-0.233,6.284-0.348,11.896-0.348,16.839c0,0.629,0.008,1.854,0.025,3.673h0.348c0.463,0,1.775-1.336,3.943-4.006
		c2.164-2.672,3.249-4.27,3.249-4.799h7.39c0,0.512-1.124,1.942-3.371,4.292c-2.251,2.347-4.068,3.967-5.455,4.861v0.371
		c1.535,1.075,3.656,3.518,6.359,7.328C418.514,208.809,419.865,211.046,419.865,211.706z"/>
	<path fill="#FFFFFF" d="M247.608,248.825c0,3.95-1.468,6.868-4.403,8.755c-2.936,1.885-6.534,2.826-10.802,2.826
		c-0.777,0-1.33-0.016-1.661-0.05c0,3.107,0.091,7.212,0.272,12.304h-6.97c0.215-4.779,0.324-10.409,0.324-16.89
		c0-5.954-0.109-11.087-0.324-15.402h4.316c0.611,0,1.785-0.026,3.521-0.075c1.736-0.049,3.242-0.076,4.514-0.076
		c3.141,0,5.795,0.712,7.961,2.134C246.525,243.771,247.608,245.93,247.608,248.825z M241.208,250.188
		c0-3.537-2.349-5.308-7.044-5.308c-1.173,0-2.414,0.124-3.72,0.373c0.182,3.125,0.274,6.663,0.274,10.613
		c0.412,0.034,0.893,0.049,1.438,0.049C238.191,255.915,241.208,254.008,241.208,250.188z"/>
	<path fill="#FFFFFF" d="M267.821,249.097l-1.438,5.802c-1.224-0.494-2.465-0.742-3.722-0.742c-2.43,0-4.035,1.092-4.811,3.272
		c0,6.597,0.049,11.674,0.148,15.229h-6.598c0.28-4.976,0.421-9.045,0.421-12.204c0-3.934-0.413-7.664-1.24-11.185l6.325-0.695
		c0.281,1.821,0.421,2.887,0.421,3.2h0.396c1.521-2.331,3.546-3.496,6.076-3.496C264.994,248.278,266.333,248.551,267.821,249.097z"
		/>
	<path fill="#FFFFFF" d="M294.93,260.332c0,4.167-1.282,7.423-3.845,9.771c-2.563,2.348-5.58,3.521-9.053,3.521
		c-3.307,0-6.143-1.07-8.506-3.211c-2.364-2.142-3.546-5.155-3.546-9.042c0-4.183,1.289-7.456,3.869-9.818
		c2.579-2.364,5.604-3.549,9.076-3.549c3.291,0,6.114,1.079,8.471,3.237C293.751,253.4,294.93,256.431,294.93,260.332z
		 M288.457,261.076c0-2.399-0.562-4.41-1.687-6.04c-1.125-1.628-2.588-2.442-4.39-2.442c-1.752,0-3.18,0.761-4.277,2.281
		c-1.1,1.521-1.65,3.421-1.65,5.703c0,2.396,0.563,4.411,1.688,6.039c1.124,1.627,2.587,2.444,4.389,2.444
		c1.753,0,3.179-0.761,4.278-2.284C287.906,265.259,288.457,263.356,288.457,261.076z"/>
	<path fill="#FFFFFF" d="M306.411,248.574c-0.231,5.011-0.347,9.985-0.347,14.932c0,1.289,0.033,3.062,0.1,5.319
		s0.1,3.767,0.1,4.526c0,6.102-2.44,9.639-7.317,10.615l-1.812-3.472c1.174-0.942,1.973-2.327,2.396-4.155
		c0.42-1.828,0.631-5.674,0.631-11.544c0-6.664-0.297-11.838-0.893-15.526L306.411,248.574z M307.504,241.582
		c0,1.124-0.39,2.108-1.168,2.95c-0.775,0.844-1.852,1.266-3.223,1.266c-1.158,0-2.063-0.363-2.716-1.091s-0.979-1.604-0.979-2.63
		c0-1.123,0.389-2.1,1.166-2.927c0.777-0.825,1.859-1.239,3.249-1.239c1.173,0,2.077,0.359,2.716,1.078
		C307.186,239.709,307.504,240.573,307.504,241.582z"/>
	<path fill="#FFFFFF" d="M333.595,258.347c0,0.845-0.05,1.943-0.149,3.301l-15.973,0.272c0.232,1.866,1.033,3.422,2.408,4.662
		c1.371,1.239,3.174,1.86,5.404,1.86c2.48,0,5.12-0.372,7.913-1.118l-0.495,4.813c-2.282,0.826-5.109,1.24-8.482,1.24
		c-4.266,0-7.536-1.199-9.808-3.598c-2.275-2.396-3.412-5.283-3.412-8.655c0-3.521,1.078-6.577,3.237-9.165
		c2.158-2.588,5.154-3.882,8.989-3.882c3.506,0,6.11,0.955,7.813,2.854C332.742,252.834,333.595,255.305,333.595,258.347z
		 M327.791,258.125c0-3.803-1.621-5.706-4.862-5.706c-3.093,0-4.926,1.97-5.507,5.905L327.791,258.125z"/>
	<path fill="#FFFFFF" d="M356.832,267.448l-0.421,4.739c-1.504,0.793-3.545,1.19-6.126,1.19c-4.265,0-7.543-1.19-9.831-3.571
		c-2.292-2.38-3.437-5.241-3.437-8.581c0-3.472,1.199-6.502,3.597-9.091c2.397-2.587,5.68-3.881,9.846-3.881
		c2.034,0,3.845,0.232,5.433,0.695l-0.844,5.06c-1.521-0.629-3.224-0.942-5.109-0.942c-2.002,0-3.58,0.705-4.736,2.119
		c-1.158,1.413-1.736,3.154-1.736,5.221c0,2.25,0.686,4.151,2.057,5.704c1.373,1.556,3.315,2.332,5.83,2.332
		C352.823,268.442,354.65,268.11,356.832,267.448z"/>
	<path fill="#FFFFFF" d="M375.386,268.02l-0.423,4.416c-1.158,0.494-2.613,0.743-4.365,0.743c-2.679,0-4.694-0.728-6.052-2.182
		c-1.354-1.456-2.034-4.259-2.034-8.409c0-2.496,0.018-5.325,0.051-8.482c-0.844,0-1.985,0.051-3.422,0.149l0.175-4.886
		c1.272,0.099,2.453,0.148,3.545,0.148c0.017-0.876,0.081-3.183,0.2-6.919l5.875-0.72c-0.246,3.291-0.371,5.836-0.371,7.638
		c1.389,0,3.465-0.063,6.225-0.196l-0.198,4.935c-2.515-0.099-4.557-0.149-6.124-0.149c-0.034,2.2-0.051,4.505-0.051,6.92
		c0,2.943,0.297,4.916,0.893,5.914c0.595,1.002,1.646,1.502,3.151,1.502C373.367,268.442,374.344,268.303,375.386,268.02z"/>
</g>
</svg>
