<?xml version="1.0" encoding="utf-8"?>
<!-- Generator: Adobe Illustrator 16.0.3, SVG Export Plug-In . SVG Version: 6.00 Build 0)  -->
<!DOCTYPE svg PUBLIC "-//W3C//DTD SVG 1.1//EN" "http://www.w3.org/Graphics/SVG/1.1/DTD/svg11.dtd">
<svg version="1.1" id="Capa_1" xmlns="http://www.w3.org/2000/svg" xmlns:xlink="http://www.w3.org/1999/xlink" x="0px" y="0px"
	 width="600px" height="150px" viewBox="0 0 600 150" enable-background="new 0 0 600 150" xml:space="preserve">
<rect x="253.5" y="28.188" fill="#4F5B93" width="93" height="93"/>
<path fill="#FFFFFF" d="M280.437,63.82c-3.551,0-12.126,0-12.126,0l-5.948,29.743h5.948l1.775-8.008c0,0,0.458,0,5.088,0
	c7.889,0,12.423-4.121,13.27-12.932C289.109,65.708,283.979,63.82,280.437,63.82z M281.178,77.493
	c-1.775,4.347-10.177,3.312-10.177,3.312l2.343-12.235c0,0,0.184-0.1,4.805,0C283.475,68.689,282.954,73.145,281.178,77.493z"/>
<path fill="#FFFFFF" d="M294.543,55.813l-5.92,29.714h5.706l3.417-16.959c0,0,2.459,0.057,4.576,0.057s3.775,0.458,2.974,4.347
	c-0.801,3.889-2.573,12.555-2.573,12.555h5.776c0,0,1.603-7.637,2.574-12.499c0.973-4.862,0.752-9.089-5.948-9.208
	c-6.425-0.115-6.425-0.115-6.425-0.115l1.602-7.893H294.543z"/>
<path fill="#FFFFFF" d="M329.57,63.82c-3.551,0-12.125,0-12.125,0l-5.948,29.743h5.948l1.775-8.008c0,0,0.459,0,5.088,0
	c7.89,0,12.424-4.121,13.271-12.932C338.243,65.708,333.113,63.82,329.57,63.82z M330.313,77.493
	c-1.775,4.347-10.176,3.312-10.176,3.312l2.342-12.235c0,0,0.184-0.1,4.805,0C332.607,68.689,332.087,73.145,330.313,77.493z"/>
<path fill="none" d="M316.082,62.857"/>
</svg>
