<?xml version="1.0" encoding="utf-8"?>
<!-- Generator: Adobe Illustrator 16.0.3, SVG Export Plug-In . SVG Version: 6.00 Build 0)  -->
<!DOCTYPE svg PUBLIC "-//W3C//DTD SVG 1.1//EN" "http://www.w3.org/Graphics/SVG/1.1/DTD/svg11.dtd">
<svg version="1.1" id="Capa_1" xmlns="http://www.w3.org/2000/svg" xmlns:xlink="http://www.w3.org/1999/xlink" x="0px" y="0px"
	 width="145.5px" height="150.625px" viewBox="0 -0.625 145.5 150.625" enable-background="new 0 -0.625 145.5 150.625"
	 xml:space="preserve">
<rect x="26.25" y="28.188" fill="#4F5B93" width="93" height="93"/>
<path fill="#FFFFFF" d="M53.187,63.82c-3.551,0-12.126,0-12.126,0l-5.948,29.742h5.948l1.775-8.008c0,0,0.458,0,5.088,0
	c7.889,0,12.423-4.121,13.27-12.931C61.859,65.708,56.729,63.82,53.187,63.82z M53.928,77.493
	c-1.775,4.347-10.177,3.312-10.177,3.312l2.343-12.235c0,0,0.184-0.1,4.805,0C56.225,68.689,55.704,73.145,53.928,77.493z"/>
<path fill="#FFFFFF" d="M67.293,55.813l-5.92,29.714h5.706l3.417-16.959c0,0,2.459,0.057,4.576,0.057s3.775,0.458,2.974,4.347
	s-2.574,12.555-2.574,12.555h5.777c0,0,1.602-7.636,2.574-12.498c0.973-4.862,0.752-9.089-5.948-9.208
	c-6.425-0.115-6.425-0.115-6.425-0.115l1.602-7.893H67.293z"/>
<path fill="#FFFFFF" d="M102.321,63.82c-3.551,0-12.126,0-12.126,0l-5.948,29.742h5.948l1.776-8.008c0,0,0.458,0,5.088,0
	c7.889,0,12.423-4.121,13.27-12.931C110.993,65.708,105.863,63.82,102.321,63.82z M103.062,77.493
	c-1.775,4.347-10.175,3.312-10.175,3.312l2.342-12.235c0,0,0.183-0.1,4.804,0C105.358,68.689,104.837,73.145,103.062,77.493z"/>
<path fill="none" d="M88.832,62.857"/>
</svg>
