<?xml version="1.0" encoding="utf-8"?>
<!-- Generator: Adobe Illustrator 16.0.3, SVG Export Plug-In . SVG Version: 6.00 Build 0)  -->
<!DOCTYPE svg PUBLIC "-//W3C//DTD SVG 1.1//EN" "http://www.w3.org/Graphics/SVG/1.1/DTD/svg11.dtd">
<svg version="1.1" id="Capa_1" xmlns="http://www.w3.org/2000/svg" xmlns:xlink="http://www.w3.org/1999/xlink" x="0px" y="0px"
	 width="145.5px" height="150.625px" viewBox="0 0 145.5 150.625" enable-background="new 0 0 145.5 150.625" xml:space="preserve">
<path fill="#47A43F" d="M63.83,66.092c0,0.28-0.23,0.52-0.52,0.52s-0.52-0.24-0.52-0.52c0-0.29,0.23-0.52,0.52-0.52
	S63.83,65.803,63.83,66.092z"/>
<path fill="#47A43F" d="M65.44,66.612c0,0.29-0.23,0.52-0.52,0.52s-0.52-0.23-0.52-0.52s0.23-0.52,0.52-0.52
	S65.44,66.322,65.44,66.612z"/>
<path fill="#47A43F" d="M67.16,66.833c0,0.29-0.23,0.52-0.52,0.52s-0.52-0.23-0.52-0.52s0.23-0.52,0.52-0.52
	S67.16,66.542,67.16,66.833z"/>
<path fill="#47A43F" d="M63.31,57.232c-0.29,0-0.52,0.24-0.52,0.52c0,0.29,0.23,0.52,0.52,0.52s0.52-0.23,0.52-0.52
	C63.83,57.473,63.6,57.232,63.31,57.232z M63.31,48.902c-0.29,0-0.52,0.23-0.52,0.52s0.23,0.52,0.52,0.52s0.52-0.23,0.52-0.52
	S63.6,48.902,63.31,48.902z M64.92,57.752c-0.29,0-0.52,0.24-0.52,0.52c0,0.29,0.23,0.53,0.52,0.53s0.52-0.24,0.52-0.53
	C65.44,57.993,65.21,57.752,64.92,57.752z M64.92,49.422c-0.29,0-0.52,0.23-0.52,0.52s0.23,0.52,0.52,0.52s0.52-0.23,0.52-0.52
	S65.21,49.422,64.92,49.422z M66.64,57.982c-0.29,0-0.52,0.23-0.52,0.52c0,0.28,0.23,0.52,0.52,0.52s0.52-0.24,0.52-0.52
	C67.16,58.212,66.93,57.982,66.64,57.982z M66.64,49.643c-0.29,0-0.52,0.24-0.52,0.52c0,0.29,0.23,0.52,0.52,0.52
	s0.52-0.23,0.52-0.52C67.16,49.882,66.93,49.643,66.64,49.643z M66.64,57.982c-0.29,0-0.52,0.23-0.52,0.52
	c0,0.28,0.23,0.52,0.52,0.52s0.52-0.24,0.52-0.52C67.16,58.212,66.93,57.982,66.64,57.982z M64.92,57.752
	c-0.29,0-0.52,0.24-0.52,0.52c0,0.29,0.23,0.53,0.52,0.53s0.52-0.24,0.52-0.53C65.44,57.993,65.21,57.752,64.92,57.752z
	 M63.31,57.232c-0.29,0-0.52,0.24-0.52,0.52c0,0.29,0.23,0.52,0.52,0.52s0.52-0.23,0.52-0.52C63.83,57.473,63.6,57.232,63.31,57.232
	z M66.64,49.643c-0.29,0-0.52,0.24-0.52,0.52c0,0.29,0.23,0.52,0.52,0.52s0.52-0.23,0.52-0.52
	C67.16,49.882,66.93,49.643,66.64,49.643z M64.92,49.422c-0.29,0-0.52,0.23-0.52,0.52s0.23,0.52,0.52,0.52s0.52-0.23,0.52-0.52
	S65.21,49.422,64.92,49.422z M63.31,48.902c-0.29,0-0.52,0.23-0.52,0.52s0.23,0.52,0.52,0.52s0.52-0.23,0.52-0.52
	S63.6,48.902,63.31,48.902z M63.31,57.232c-0.29,0-0.52,0.24-0.52,0.52c0,0.29,0.23,0.52,0.52,0.52s0.52-0.23,0.52-0.52
	C63.83,57.473,63.6,57.232,63.31,57.232z M63.31,48.902c-0.29,0-0.52,0.23-0.52,0.52s0.23,0.52,0.52,0.52s0.52-0.23,0.52-0.52
	S63.6,48.902,63.31,48.902z M64.92,57.752c-0.29,0-0.52,0.24-0.52,0.52c0,0.29,0.23,0.53,0.52,0.53s0.52-0.24,0.52-0.53
	C65.44,57.993,65.21,57.752,64.92,57.752z M64.92,49.422c-0.29,0-0.52,0.23-0.52,0.52s0.23,0.52,0.52,0.52s0.52-0.23,0.52-0.52
	S65.21,49.422,64.92,49.422z M66.64,57.982c-0.29,0-0.52,0.23-0.52,0.52c0,0.28,0.23,0.52,0.52,0.52s0.52-0.24,0.52-0.52
	C67.16,58.212,66.93,57.982,66.64,57.982z M66.64,49.643c-0.29,0-0.52,0.24-0.52,0.52c0,0.29,0.23,0.52,0.52,0.52
	s0.52-0.23,0.52-0.52C67.16,49.882,66.93,49.643,66.64,49.643z M66.64,57.982c-0.29,0-0.52,0.23-0.52,0.52
	c0,0.28,0.23,0.52,0.52,0.52s0.52-0.24,0.52-0.52C67.16,58.212,66.93,57.982,66.64,57.982z M64.92,57.752
	c-0.29,0-0.52,0.24-0.52,0.52c0,0.29,0.23,0.53,0.52,0.53s0.52-0.24,0.52-0.53C65.44,57.993,65.21,57.752,64.92,57.752z
	 M63.31,57.232c-0.29,0-0.52,0.24-0.52,0.52c0,0.29,0.23,0.52,0.52,0.52s0.52-0.23,0.52-0.52C63.83,57.473,63.6,57.232,63.31,57.232
	z M66.64,49.643c-0.29,0-0.52,0.24-0.52,0.52c0,0.29,0.23,0.52,0.52,0.52s0.52-0.23,0.52-0.52
	C67.16,49.882,66.93,49.643,66.64,49.643z M64.92,49.422c-0.29,0-0.52,0.23-0.52,0.52s0.23,0.52,0.52,0.52s0.52-0.23,0.52-0.52
	S65.21,49.422,64.92,49.422z M63.31,48.902c-0.29,0-0.52,0.23-0.52,0.52s0.23,0.52,0.52,0.52s0.52-0.23,0.52-0.52
	S63.6,48.902,63.31,48.902z M25.42,27.353v94.67h94.66v-94.67H25.42z M84.8,51.603c-0.06,0.05-0.12,0.11-0.18,0.16
	c-0.2,0.16-0.43,0.31-0.71,0.48c-0.38,0.22-0.83,0.43-1.391,0.64c-0.359,0.13-0.76,0.25-1.199,0.37c-0.221,0.06-0.46,0.12-0.71,0.17
	c-0.25,0.06-0.511,0.11-0.79,0.16c-1.37,0.25-3.07,0.43-5.17,0.48c-0.21,0.01-0.431,0.01-0.65,0.01c-0.22,0.01-0.44,0.01-0.66,0.01
	c-0.63,0-1.23-0.01-1.81-0.03c-0.28-0.01-0.55-0.02-0.82-0.04c-1.36-0.07-2.55-0.2-3.59-0.37c-0.25-0.04-0.49-0.08-0.72-0.13
	c-0.23-0.04-0.45-0.09-0.67-0.14c-0.25-0.06-0.49-0.11-0.72-0.17c-0.23-0.06-0.45-0.13-0.66-0.19c-0.42-0.13-0.8-0.26-1.14-0.4
	c-0.58-0.24-1.06-0.48-1.46-0.72c-0.1-0.06-0.19-0.12-0.28-0.18c-0.13-0.09-0.25-0.18-0.36-0.26c-0.1-0.09-0.2-0.17-0.29-0.25v0.01
	c-0.59-0.54-0.74-0.94-0.74-0.94v-6.94c0,0.23,0.19,3.88,12.79,3.88c12.54,0,12.76-3.61,12.76-3.87l0.04,6.99
	C85.67,50.333,85.59,50.902,84.8,51.603z M59.94,52.703l0.28-0.27l0.53-0.49c0.98,1.15,3.88,2.77,12.27,2.77
	c8.18,0,11.12-1.55,12.17-2.69l0.479,0.5v6.46c0,0-0.02,0.53-0.79,1.18c-0.03,0.03-0.07,0.06-0.11,0.09
	c-0.069,0.06-0.149,0.12-0.229,0.17c-0.2,0.14-0.44,0.28-0.72,0.42c-0.12,0.06-0.25,0.12-0.391,0.18
	c-1.76,0.78-4.93,1.47-10.61,1.47c-0.3,0-0.59,0-0.87-0.01c-0.29,0-0.56-0.01-0.83-0.01c-0.55-0.02-1.06-0.04-1.55-0.07
	c-0.39-0.02-0.77-0.05-1.13-0.08c-0.54-0.04-1.05-0.1-1.52-0.16c-0.32-0.04-0.62-0.08-0.9-0.13c-0.29-0.05-0.57-0.1-0.83-0.15
	c-0.26-0.05-0.51-0.11-0.74-0.16c-0.39-0.1-0.74-0.19-1.06-0.3c-0.17-0.05-0.34-0.11-0.49-0.16c-0.15-0.06-0.29-0.11-0.43-0.16
	c-0.01-0.01-0.03-0.02-0.04-0.02c-0.25-0.1-0.48-0.21-0.68-0.31c-0.13-0.08-0.25-0.14-0.36-0.21c-0.22-0.14-0.41-0.27-0.57-0.4
	c-0.85-0.7-0.88-1.29-0.88-1.29V52.703z M59.94,61.183l0.5-0.47c0.98,1.15,4.26,2.55,12.65,2.55c8.19,0,11.13-1.54,12.18-2.68
	l0.4,0.42v6.46c0,0-0.02,0.57-0.87,1.25c-1.26,1.01-4.359,2.26-11.98,2.26c-7.61,0-10.72-1.28-12-2.32c-0.85-0.7-0.88-1.3-0.88-1.3
	V61.183z M66.64,49.643c-0.29,0-0.52,0.24-0.52,0.52c0,0.29,0.23,0.52,0.52,0.52s0.52-0.23,0.52-0.52
	C67.16,49.882,66.93,49.643,66.64,49.643z M66.64,59.022c0.29,0,0.52-0.24,0.52-0.52c0-0.29-0.23-0.52-0.52-0.52
	s-0.52,0.23-0.52,0.52C66.12,58.783,66.35,59.022,66.64,59.022z M64.92,49.422c-0.29,0-0.52,0.23-0.52,0.52s0.23,0.52,0.52,0.52
	s0.52-0.23,0.52-0.52S65.21,49.422,64.92,49.422z M64.92,58.803c0.29,0,0.52-0.24,0.52-0.53c0-0.28-0.23-0.52-0.52-0.52
	s-0.52,0.24-0.52,0.52C64.4,58.563,64.63,58.803,64.92,58.803z M63.31,48.902c-0.29,0-0.52,0.23-0.52,0.52s0.23,0.52,0.52,0.52
	s0.52-0.23,0.52-0.52S63.6,48.902,63.31,48.902z M63.31,58.272c0.29,0,0.52-0.23,0.52-0.52c0-0.28-0.23-0.52-0.52-0.52
	s-0.52,0.24-0.52,0.52C62.79,58.042,63.02,58.272,63.31,58.272z M63.31,48.902c-0.29,0-0.52,0.23-0.52,0.52s0.23,0.52,0.52,0.52
	s0.52-0.23,0.52-0.52S63.6,48.902,63.31,48.902z M64.92,49.422c-0.29,0-0.52,0.23-0.52,0.52s0.23,0.52,0.52,0.52
	s0.52-0.23,0.52-0.52S65.21,49.422,64.92,49.422z M66.64,49.643c-0.29,0-0.52,0.24-0.52,0.52c0,0.29,0.23,0.52,0.52,0.52
	s0.52-0.23,0.52-0.52C67.16,49.882,66.93,49.643,66.64,49.643z M63.31,57.232c-0.29,0-0.52,0.24-0.52,0.52
	c0,0.29,0.23,0.52,0.52,0.52s0.52-0.23,0.52-0.52C63.83,57.473,63.6,57.232,63.31,57.232z M64.92,57.752
	c-0.29,0-0.52,0.24-0.52,0.52c0,0.29,0.23,0.53,0.52,0.53s0.52-0.24,0.52-0.53C65.44,57.993,65.21,57.752,64.92,57.752z
	 M66.64,57.982c-0.29,0-0.52,0.23-0.52,0.52c0,0.28,0.23,0.52,0.52,0.52s0.52-0.24,0.52-0.52
	C67.16,58.212,66.93,57.982,66.64,57.982z M66.64,49.643c-0.29,0-0.52,0.24-0.52,0.52c0,0.29,0.23,0.52,0.52,0.52
	s0.52-0.23,0.52-0.52C67.16,49.882,66.93,49.643,66.64,49.643z M66.64,57.982c-0.29,0-0.52,0.23-0.52,0.52
	c0,0.28,0.23,0.52,0.52,0.52s0.52-0.24,0.52-0.52C67.16,58.212,66.93,57.982,66.64,57.982z M64.92,49.422
	c-0.29,0-0.52,0.23-0.52,0.52s0.23,0.52,0.52,0.52s0.52-0.23,0.52-0.52S65.21,49.422,64.92,49.422z M64.92,57.752
	c-0.29,0-0.52,0.24-0.52,0.52c0,0.29,0.23,0.53,0.52,0.53s0.52-0.24,0.52-0.53C65.44,57.993,65.21,57.752,64.92,57.752z
	 M63.31,48.902c-0.29,0-0.52,0.23-0.52,0.52s0.23,0.52,0.52,0.52s0.52-0.23,0.52-0.52S63.6,48.902,63.31,48.902z M63.31,57.232
	c-0.29,0-0.52,0.24-0.52,0.52c0,0.29,0.23,0.52,0.52,0.52s0.52-0.23,0.52-0.52C63.83,57.473,63.6,57.232,63.31,57.232z
	 M63.31,57.232c-0.29,0-0.52,0.24-0.52,0.52c0,0.29,0.23,0.52,0.52,0.52s0.52-0.23,0.52-0.52C63.83,57.473,63.6,57.232,63.31,57.232
	z M64.92,57.752c-0.29,0-0.52,0.24-0.52,0.52c0,0.29,0.23,0.53,0.52,0.53s0.52-0.24,0.52-0.53
	C65.44,57.993,65.21,57.752,64.92,57.752z M66.64,57.982c-0.29,0-0.52,0.23-0.52,0.52c0,0.28,0.23,0.52,0.52,0.52
	s0.52-0.24,0.52-0.52C67.16,58.212,66.93,57.982,66.64,57.982z M66.64,57.982c-0.29,0-0.52,0.23-0.52,0.52
	c0,0.28,0.23,0.52,0.52,0.52s0.52-0.24,0.52-0.52C67.16,58.212,66.93,57.982,66.64,57.982z M64.92,57.752
	c-0.29,0-0.52,0.24-0.52,0.52c0,0.29,0.23,0.53,0.52,0.53s0.52-0.24,0.52-0.53C65.44,57.993,65.21,57.752,64.92,57.752z
	 M63.31,57.232c-0.29,0-0.52,0.24-0.52,0.52c0,0.29,0.23,0.52,0.52,0.52s0.52-0.23,0.52-0.52C63.83,57.473,63.6,57.232,63.31,57.232
	z"/>
<path fill="#FFFFFF" d="M85.63,43.342c0,0.26-0.22,3.87-12.76,3.87c-12.6,0-12.79-3.65-12.79-3.88v6.94c0,0,0.15,0.4,0.74,0.94
	v-0.01c0.09,0.08,0.19,0.16,0.29,0.25c0.11,0.08,0.23,0.17,0.36,0.26c0.09,0.06,0.18,0.12,0.28,0.18c0.4,0.24,0.88,0.48,1.46,0.72
	c0.34,0.14,0.72,0.27,1.14,0.4c0.21,0.06,0.43,0.13,0.66,0.19c0.23,0.06,0.47,0.11,0.72,0.17c0.22,0.05,0.44,0.1,0.67,0.14
	c0.23,0.05,0.47,0.09,0.72,0.13c1.04,0.17,2.23,0.3,3.59,0.37c0.27,0.02,0.54,0.03,0.82,0.04c0.58,0.02,1.18,0.03,1.81,0.03
	c0.22,0,0.44,0,0.66-0.01c0.22,0,0.44,0,0.65-0.01c2.1-0.05,3.8-0.23,5.17-0.48c0.279-0.05,0.54-0.1,0.79-0.16
	c0.25-0.05,0.489-0.11,0.71-0.17c0.439-0.12,0.84-0.24,1.199-0.37c0.561-0.21,1.011-0.42,1.391-0.64c0.28-0.17,0.51-0.32,0.71-0.48
	c0.06-0.05,0.12-0.11,0.18-0.16c0.79-0.7,0.87-1.27,0.87-1.27L85.63,43.342z M63.31,49.942c-0.29,0-0.52-0.23-0.52-0.52
	s0.23-0.52,0.52-0.52s0.52,0.23,0.52,0.52S63.6,49.942,63.31,49.942z M64.92,50.462c-0.29,0-0.52-0.23-0.52-0.52
	s0.23-0.52,0.52-0.52s0.52,0.23,0.52,0.52S65.21,50.462,64.92,50.462z M66.64,50.683c-0.29,0-0.52-0.23-0.52-0.52
	c0-0.28,0.23-0.52,0.52-0.52s0.52,0.24,0.52,0.52C67.16,50.453,66.93,50.683,66.64,50.683z"/>
<path fill="#FFFFFF" d="M85.19,52.022c-1.051,1.14-3.99,2.69-12.17,2.69c-8.39,0-11.29-1.62-12.27-2.77l-0.53,0.49l-0.28,0.27v6.17
	c0,0,0.03,0.59,0.88,1.29c0.16,0.13,0.35,0.26,0.57,0.4c0.11,0.07,0.23,0.13,0.36,0.21c0.2,0.1,0.43,0.21,0.68,0.31
	c0.01,0,0.03,0.01,0.04,0.02c0.14,0.05,0.28,0.1,0.43,0.16c0.15,0.05,0.32,0.11,0.49,0.16c0.32,0.11,0.67,0.2,1.06,0.3
	c0.23,0.05,0.48,0.11,0.74,0.16c0.26,0.05,0.54,0.1,0.83,0.15c0.28,0.05,0.58,0.09,0.9,0.13c0.47,0.06,0.98,0.12,1.52,0.16
	c0.36,0.03,0.74,0.06,1.13,0.08c0.49,0.03,1,0.05,1.55,0.07c0.27,0,0.54,0.01,0.83,0.01c0.28,0.01,0.57,0.01,0.87,0.01
	c5.68,0,8.85-0.69,10.61-1.47c0.141-0.06,0.271-0.12,0.391-0.18c0.279-0.14,0.52-0.28,0.72-0.42c0.08-0.05,0.16-0.11,0.229-0.17
	c0.04-0.03,0.08-0.06,0.11-0.09c0.771-0.65,0.79-1.18,0.79-1.18v-6.46L85.19,52.022z M63.31,58.272c-0.29,0-0.52-0.23-0.52-0.52
	c0-0.28,0.23-0.52,0.52-0.52s0.52,0.24,0.52,0.52C63.83,58.042,63.6,58.272,63.31,58.272z M64.92,58.803
	c-0.29,0-0.52-0.24-0.52-0.53c0-0.28,0.23-0.52,0.52-0.52s0.52,0.24,0.52,0.52C65.44,58.563,65.21,58.803,64.92,58.803z
	 M66.64,59.022c-0.29,0-0.52-0.24-0.52-0.52c0-0.29,0.23-0.52,0.52-0.52s0.52,0.23,0.52,0.52
	C67.16,58.783,66.93,59.022,66.64,59.022z"/>
<path fill="#FFFFFF" d="M85.27,60.583c-1.05,1.14-3.989,2.68-12.18,2.68c-8.39,0-11.67-1.4-12.65-2.55l-0.5,0.47v6.17
	c0,0,0.03,0.6,0.88,1.3c1.28,1.04,4.39,2.32,12,2.32c7.621,0,10.72-1.25,11.98-2.26c0.851-0.68,0.87-1.25,0.87-1.25v-6.46
	L85.27,60.583z M63.31,66.612c-0.29,0-0.52-0.24-0.52-0.52c0-0.29,0.23-0.52,0.52-0.52s0.52,0.23,0.52,0.52
	C63.83,66.373,63.6,66.612,63.31,66.612z M64.92,67.132c-0.29,0-0.52-0.23-0.52-0.52s0.23-0.52,0.52-0.52s0.52,0.23,0.52,0.52
	S65.21,67.132,64.92,67.132z M66.64,67.353c-0.29,0-0.52-0.23-0.52-0.52s0.23-0.52,0.52-0.52s0.52,0.23,0.52,0.52
	S66.93,67.353,66.64,67.353z"/>
<g>
	<path fill="#FFFFFF" d="M39.702,104.499v-5.773c1.045,0.876,2.182,1.535,3.41,1.977c1.227,0.439,2.465,0.657,3.717,0.657
		c0.734,0,1.375-0.066,1.921-0.198s1.004-0.314,1.371-0.549c0.366-0.236,0.64-0.512,0.821-0.832c0.18-0.317,0.271-0.664,0.271-1.035
		c0-0.506-0.145-0.958-0.434-1.355c-0.288-0.396-0.682-0.766-1.182-1.099c-0.499-0.339-1.091-0.662-1.777-0.975
		c-0.685-0.313-1.425-0.632-2.219-0.957c-2.021-0.842-3.527-1.87-4.52-3.086c-0.992-1.214-1.489-2.682-1.489-4.402
		c0-1.347,0.271-2.507,0.812-3.473c0.541-0.967,1.278-1.765,2.211-2.392c0.932-0.625,2.012-1.084,3.238-1.379
		c1.226-0.294,2.526-0.443,3.897-0.443c1.347,0,2.541,0.083,3.582,0.243c1.04,0.163,1.999,0.412,2.877,0.75v5.394
		c-0.434-0.3-0.905-0.565-1.417-0.794c-0.511-0.228-1.037-0.418-1.579-0.569c-0.542-0.15-1.079-0.261-1.615-0.333
		c-0.536-0.072-1.044-0.109-1.524-0.109c-0.662,0-1.263,0.063-1.804,0.19c-0.541,0.126-0.999,0.303-1.371,0.531
		c-0.374,0.229-0.662,0.502-0.866,0.821c-0.205,0.318-0.308,0.676-0.308,1.074c0,0.433,0.115,0.821,0.344,1.162
		c0.228,0.345,0.553,0.67,0.974,0.974c0.421,0.307,0.933,0.607,1.534,0.902s1.281,0.6,2.039,0.911
		c1.034,0.433,1.963,0.894,2.788,1.38c0.824,0.487,1.53,1.038,2.119,1.651c0.589,0.614,1.04,1.314,1.354,2.102
		c0.312,0.788,0.468,1.706,0.468,2.752c0,1.443-0.273,2.655-0.821,3.636c-0.547,0.979-1.29,1.773-2.228,2.382
		c-0.938,0.606-2.03,1.043-3.274,1.309c-1.245,0.264-2.56,0.396-3.943,0.396c-1.419,0-2.769-0.119-4.05-0.36
		C41.75,105.342,40.64,104.98,39.702,104.499z"/>
	<path fill="#FFFFFF" d="M81.31,102.683c0.08-0.08,0.16-0.15,0.23-0.23c0.08-0.08,0.15-0.159,0.24-0.239
		c2.37-2.511,3.55-5.79,3.55-9.841c0-3.97-1.14-7.149-3.43-9.56c-2.271-2.42-5.25-3.63-8.95-3.63c-3.92,0-7.06,1.27-9.41,3.79
		c-2.37,2.54-3.56,5.85-3.56,9.93c0,3.86,1.17,7,3.5,9.43c2.33,2.41,5.35,3.61,9.06,3.61c1.36,0,2.6-0.149,3.729-0.45l3.431,3.48
		h8.16L81.31,102.683z M77.43,98.742c-1.18,1.45-2.77,2.17-4.78,2.17c-1.95,0-3.53-0.75-4.73-2.239c-1.2-1.49-1.8-3.521-1.8-6.08
		c0-2.53,0.6-4.55,1.8-6.08c1.21-1.54,2.84-2.311,4.87-2.311c2,0,3.56,0.74,4.69,2.23c1.149,1.51,1.72,3.6,1.72,6.27
		C79.2,95.263,78.61,97.272,77.43,98.742z"/>
	<path fill="#FFFFFF" d="M105.035,105.492h-15.41V79.62h5.827v21.145h9.583V105.492z"/>
</g>
<path fill="#22485F" d="M85.63,43.322v0.02c0,0.26-0.22,3.87-12.76,3.87c-12.6,0-12.79-3.65-12.79-3.88v-0.01
	c0,0-0.28-2.85,13.26-2.85S85.63,43.322,85.63,43.322z"/>
<path fill="#1981B4" d="M61.11,51.453c-0.11-0.08-0.2-0.16-0.29-0.24v-0.01C60.91,51.283,61.01,51.362,61.11,51.453z"/>
<path fill="#1981B4" d="M63.83,49.422c0,0.29-0.23,0.52-0.52,0.52s-0.52-0.23-0.52-0.52s0.23-0.52,0.52-0.52
	S63.83,49.132,63.83,49.422z"/>
<path fill="#1981B4" d="M64.35,53.013c-0.42-0.12-0.8-0.26-1.14-0.4C63.55,52.752,63.93,52.882,64.35,53.013z"/>
<path fill="#1981B4" d="M65.44,49.942c0,0.29-0.23,0.52-0.52,0.52s-0.52-0.23-0.52-0.52s0.23-0.52,0.52-0.52
	S65.44,49.652,65.44,49.942z"/>
<path fill="#1981B4" d="M67.16,50.163c0,0.29-0.23,0.52-0.52,0.52s-0.52-0.23-0.52-0.52c0-0.28,0.23-0.52,0.52-0.52
	S67.16,49.882,67.16,50.163z"/>
<path fill="#1981B4" d="M84.8,51.603v0.01c-0.05,0.05-0.109,0.1-0.18,0.15C84.68,51.712,84.74,51.652,84.8,51.603z"/>
<path fill="#22485F" d="M72.87,72.143c-12.2,0-12.05-3.33-12.05-3.33v-0.16c1.28,1.04,4.39,2.32,12,2.32
	c7.621,0,10.72-1.25,11.98-2.26v0.45C84.8,69.163,85.08,72.143,72.87,72.143z"/>
<path fill="#22485F" d="M85.19,52.022c-1.051,1.14-3.99,2.69-12.17,2.69c-8.39,0-11.29-1.62-12.27-2.77l0.07-0.08v-0.66
	c0.09,0.08,0.19,0.16,0.29,0.25c0.11,0.08,0.23,0.17,0.36,0.26c0.09,0.06,0.18,0.12,0.28,0.18c0.4,0.24,0.88,0.48,1.46,0.72
	c0.34,0.14,0.72,0.27,1.14,0.4c0.21,0.06,0.43,0.13,0.66,0.19c0.23,0.06,0.47,0.11,0.72,0.17c0.22,0.05,0.44,0.1,0.67,0.14
	c0.23,0.05,0.47,0.09,0.72,0.13c1.04,0.17,2.23,0.3,3.59,0.37c0.27,0.02,0.54,0.03,0.82,0.04c0.58,0.02,1.18,0.03,1.81,0.03
	c0.22,0,0.44,0,0.66-0.01c0.22,0,0.44,0,0.65-0.01c2.1-0.05,3.8-0.23,5.17-0.48c0.279-0.05,0.54-0.1,0.79-0.16
	c0.25-0.05,0.489-0.11,0.71-0.17c0.439-0.12,0.84-0.24,1.199-0.37c0.561-0.21,1.011-0.42,1.391-0.64c0.28-0.17,0.51-0.32,0.71-0.48
	c0.06-0.05,0.12-0.11,0.18-0.16v0.01L85.19,52.022z"/>
<path fill="#1981B4" d="M63.83,57.752c0,0.29-0.23,0.52-0.52,0.52s-0.52-0.23-0.52-0.52c0-0.28,0.23-0.52,0.52-0.52
	S63.83,57.473,63.83,57.752z"/>
<path fill="#1981B4" d="M64.45,61.723c-0.39-0.09-0.74-0.19-1.06-0.3C63.71,61.533,64.06,61.623,64.45,61.723z"/>
<path fill="#1981B4" d="M65.44,58.272c0,0.29-0.23,0.53-0.52,0.53s-0.52-0.24-0.52-0.53c0-0.28,0.23-0.52,0.52-0.52
	S65.44,57.993,65.44,58.272z"/>
<path fill="#1981B4" d="M67.16,58.502c0,0.28-0.23,0.52-0.52,0.52s-0.52-0.24-0.52-0.52c0-0.29,0.23-0.52,0.52-0.52
	S67.16,58.212,67.16,58.502z"/>
<path fill="#1981B4" d="M63.83,66.092c0,0.28-0.23,0.52-0.52,0.52s-0.52-0.24-0.52-0.52c0-0.29,0.23-0.52,0.52-0.52
	S63.83,65.803,63.83,66.092z"/>
<path fill="#1981B4" d="M65.44,66.612c0,0.29-0.23,0.52-0.52,0.52s-0.52-0.23-0.52-0.52s0.23-0.52,0.52-0.52
	S65.44,66.322,65.44,66.612z"/>
<path fill="#1981B4" d="M67.16,66.833c0,0.29-0.23,0.52-0.52,0.52s-0.52-0.23-0.52-0.52s0.23-0.52,0.52-0.52
	S67.16,66.542,67.16,66.833z"/>
<path fill="#1981B4" d="M85.27,60.583c-1.05,1.14-3.989,2.68-12.18,2.68c-8.39,0-11.67-1.4-12.65-2.55l0.38-0.36v-0.19
	c0.16,0.13,0.35,0.26,0.57,0.4c0.11,0.07,0.23,0.13,0.36,0.21c0.2,0.1,0.43,0.21,0.68,0.31c0.01,0,0.03,0.01,0.04,0.02
	c0.14,0.05,0.28,0.1,0.43,0.16c0.15,0.05,0.32,0.11,0.49,0.16c0.32,0.11,0.67,0.2,1.06,0.3c0.23,0.05,0.48,0.11,0.74,0.16
	c0.26,0.05,0.54,0.1,0.83,0.15c0.28,0.05,0.58,0.09,0.9,0.13c0.47,0.06,0.98,0.12,1.52,0.16c0.36,0.03,0.74,0.06,1.13,0.08
	c0.49,0.03,1,0.05,1.55,0.07c0.27,0,0.54,0.01,0.83,0.01c0.28,0.01,0.57,0.01,0.87,0.01c5.68,0,8.85-0.69,10.61-1.47
	c0.141-0.06,0.271-0.12,0.391-0.18c0.279-0.14,0.52-0.28,0.72-0.42c0.08-0.05,0.16-0.11,0.229-0.17c0.04-0.03,0.08-0.06,0.11-0.09
	L85.27,60.583z"/>
<path fill="#22485F" d="M85.27,60.583c-1.05,1.14-3.989,2.68-12.18,2.68c-8.39,0-11.67-1.4-12.65-2.55l0.38-0.36v-0.19
	c1.25,1.13,4.56,2.47,12.6,2.47c6.63,0,9.7-1.17,11.12-2.21c0.08-0.05,0.16-0.11,0.229-0.17c0.04-0.03,0.08-0.06,0.11-0.09
	L85.27,60.583z"/>
<path fill="#47A43F" d="M63.83,57.752c0,0.29-0.23,0.52-0.52,0.52s-0.52-0.23-0.52-0.52c0-0.28,0.23-0.52,0.52-0.52
	S63.83,57.473,63.83,57.752z"/>
<path fill="#47A43F" d="M65.44,58.272c0,0.29-0.23,0.53-0.52,0.53s-0.52-0.24-0.52-0.53c0-0.28,0.23-0.52,0.52-0.52
	S65.44,57.993,65.44,58.272z"/>
<path fill="#47A43F" d="M67.16,58.502c0,0.28-0.23,0.52-0.52,0.52s-0.52-0.24-0.52-0.52c0-0.29,0.23-0.52,0.52-0.52
	S67.16,58.212,67.16,58.502z"/>
<path fill="#47A43F" d="M63.83,66.092c0,0.28-0.23,0.52-0.52,0.52s-0.52-0.24-0.52-0.52c0-0.29,0.23-0.52,0.52-0.52
	S63.83,65.803,63.83,66.092z"/>
<path fill="#47A43F" d="M65.44,66.612c0,0.29-0.23,0.52-0.52,0.52s-0.52-0.23-0.52-0.52s0.23-0.52,0.52-0.52
	S65.44,66.322,65.44,66.612z"/>
<path fill="#47A43F" d="M67.16,66.833c0,0.29-0.23,0.52-0.52,0.52s-0.52-0.23-0.52-0.52s0.23-0.52,0.52-0.52
	S67.16,66.542,67.16,66.833z"/>
<path fill="#47A43F" d="M63.83,49.422c0,0.29-0.23,0.52-0.52,0.52s-0.52-0.23-0.52-0.52s0.23-0.52,0.52-0.52
	S63.83,49.132,63.83,49.422z"/>
<path fill="#47A43F" d="M65.44,49.942c0,0.29-0.23,0.52-0.52,0.52s-0.52-0.23-0.52-0.52s0.23-0.52,0.52-0.52
	S65.44,49.652,65.44,49.942z"/>
<path fill="#47A43F" d="M67.16,50.163c0,0.29-0.23,0.52-0.52,0.52s-0.52-0.23-0.52-0.52c0-0.28,0.23-0.52,0.52-0.52
	S67.16,49.882,67.16,50.163z"/>
<path fill="none" d="M86.206,68.953"/>
</svg>
