<?xml version="1.0" encoding="utf-8"?>
<!-- Generator: Adobe Illustrator 16.0.3, SVG Export Plug-In . SVG Version: 6.00 Build 0)  -->
<!DOCTYPE svg PUBLIC "-//W3C//DTD SVG 1.1 Tiny//EN" "http://www.w3.org/Graphics/SVG/1.1/DTD/svg11-tiny.dtd">
<svg version="1.1" baseProfile="tiny" id="Capa_1" xmlns="http://www.w3.org/2000/svg" xmlns:xlink="http://www.w3.org/1999/xlink"
	 x="0px" y="0px" width="600px" height="150px" viewBox="0 0 600 150" xml:space="preserve">
<rect x="239.666" y="14.463" fill="#47A43F" width="112.334" height="112.334"/>
<g>
	<path fill="#FFFFFF" d="M253.916,108.275v-7.344c1.33,1.117,2.776,1.955,4.337,2.514s3.136,0.837,4.728,0.837
		c0.934,0,1.748-0.084,2.444-0.253c0.695-0.168,1.277-0.4,1.744-0.699c0.466-0.299,0.814-0.65,1.044-1.057
		c0.229-0.404,0.344-0.844,0.344-1.318c0-0.643-0.184-1.217-0.551-1.722s-0.868-0.972-1.503-1.399
		c-0.635-0.429-1.388-0.842-2.261-1.24c-0.871-0.396-1.813-0.803-2.822-1.216c-2.57-1.071-4.486-2.379-5.749-3.925
		c-1.262-1.545-1.894-3.411-1.894-5.6c0-1.713,0.345-3.186,1.033-4.418c0.688-1.23,1.625-2.244,2.812-3.04
		c1.185-0.796,2.559-1.38,4.119-1.755s3.213-0.563,4.957-0.563c1.713,0,3.231,0.104,4.556,0.309c1.323,0.207,2.543,0.525,3.66,0.953
		v6.861c-0.551-0.382-1.151-0.719-1.802-1.01c-0.65-0.29-1.319-0.531-2.008-0.723s-1.373-0.332-2.054-0.424
		c-0.682-0.092-1.328-0.139-1.939-0.139c-0.842,0-1.606,0.08-2.295,0.242c-0.688,0.16-1.27,0.386-1.744,0.676
		c-0.475,0.291-0.842,0.64-1.102,1.045s-0.391,0.86-0.391,1.365c0,0.551,0.146,1.045,0.437,1.48c0.29,0.436,0.704,0.85,1.239,1.238
		c0.535,0.391,1.186,0.773,1.951,1.148c0.765,0.375,1.629,0.762,2.593,1.158c1.315,0.551,2.497,1.137,3.546,1.756
		c1.048,0.619,1.946,1.32,2.696,2.1c0.749,0.781,1.323,1.672,1.722,2.674c0.397,1.002,0.596,2.169,0.596,3.5
		c0,1.836-0.348,3.377-1.044,4.625c-0.696,1.246-1.641,2.256-2.834,3.029c-1.193,0.771-2.582,1.326-4.165,1.663
		c-1.584,0.337-3.256,0.505-5.015,0.505c-1.806,0-3.522-0.153-5.152-0.459C256.521,109.347,255.109,108.888,253.916,108.275z"/>
	<path fill="#FFFFFF" d="M295.683,110.111c-4.713,0-8.553-1.529-11.521-4.59c-2.969-3.09-4.452-7.092-4.452-12.002
		c0-5.188,1.507-9.395,4.521-12.623c2.999-3.213,6.992-4.818,11.98-4.818c4.696,0,8.49,1.537,11.383,4.612
		c2.906,3.06,4.359,7.114,4.359,12.163c0,5.156-1.507,9.325-4.521,12.508c-0.107,0.107-0.206,0.21-0.298,0.309
		c-0.092,0.101-0.192,0.195-0.299,0.287l8.33,8.01h-10.373l-4.359-4.43C298.995,109.92,297.411,110.111,295.683,110.111z
		 M296.004,82.457c-2.586,0-4.651,0.98-6.196,2.938c-1.53,1.943-2.295,4.521-2.295,7.734c0,3.259,0.765,5.837,2.295,7.734
		c1.529,1.896,3.534,2.846,6.013,2.846c2.555,0,4.582-0.918,6.082-2.754c1.499-1.867,2.248-4.43,2.248-7.688
		c0-3.396-0.727-6.051-2.18-7.964C300.532,83.406,298.543,82.457,296.004,82.457z"/>
	<path fill="#FFFFFF" d="M337.015,109.537h-19.599V76.629h7.412v26.896h12.187V109.537z"/>
</g>
<path fill="#22485F" d="M311.228,28.67v0.02c0,0.311-0.271,4.641-15.311,4.641c-15.119,0-15.35-4.381-15.35-4.65v-0.01
	c0,0-0.34-3.42,15.91-3.42S311.228,28.67,311.228,28.67z"/>
<path fill="#1981B4" d="M311.268,37.081c0,0-0.09,0.689-1.04,1.52v0.01c-1.48,1.301-5.08,2.971-13.75,2.971
	c-9.65,0-13.53-2.101-15.021-3.451c-0.71-0.649-0.89-1.129-0.89-1.129v-8.32c0,0.27,0.23,4.65,15.35,4.65
	c15.04,0,15.311-4.33,15.311-4.641L311.268,37.081z"/>
<path fill="#22485F" d="M295.917,63.25c-14.649,0-14.46-4-14.46-4v-0.19c1.53,1.25,5.261,2.79,14.391,2.79
	c9.149,0,12.87-1.5,14.38-2.71v0.53C310.228,59.67,310.567,63.25,295.917,63.25z"/>
<path fill="#22485F" d="M310.697,39.11c-1.26,1.37-4.79,3.221-14.609,3.221c-10.07,0-13.54-1.94-14.721-3.32l0.09-0.09v-0.791
	c1.49,1.351,5.37,3.451,15.021,3.451c8.67,0,12.27-1.67,13.75-2.971L310.697,39.11z"/>
<path fill="#1981B4" d="M311.268,39.709v7.75c0,0-0.021,0.641-0.95,1.42l0,0l-0.09,0.08c-1.51,1.211-5.23,2.711-14.38,2.711
	c-9.13,0-12.86-1.541-14.391-2.791c-1.029-0.84-1.06-1.549-1.06-1.549v-7.41l0.34-0.32l0.63-0.59c1.181,1.38,4.65,3.32,14.721,3.32
	c9.819,0,13.35-1.851,14.609-3.221L311.268,39.709z"/>
<path fill="#1981B4" d="M311.268,49.89v7.75c0,0-0.021,0.68-1.04,1.5c-1.51,1.21-5.23,2.71-14.38,2.71
	c-9.13,0-12.86-1.54-14.391-2.79c-1.029-0.84-1.06-1.55-1.06-1.55V50.1l1.06-1v-0.221c1.53,1.25,5.261,2.791,14.391,2.791
	c9.149,0,12.87-1.5,14.38-2.711c0.03-0.029,0.06-0.06,0.09-0.08L311.268,49.89z"/>
<path fill="#22485F" d="M310.791,49.375c-1.26,1.37-4.79,3.221-14.609,3.221c-10.07,0-14.004-1.682-15.185-3.063l0.46-0.434v-0.221
	c1.49,1.351,5.464,2.967,15.114,2.967c8.67,0,12.27-1.67,13.75-2.971L310.791,49.375z"/>
<circle fill="#FFFFFF" cx="284.438" cy="45.989" r="0.625"/>
<circle fill="#FFFFFF" cx="286.375" cy="46.614" r="0.625"/>
<circle fill="#FFFFFF" cx="288.438" cy="46.879" r="0.625"/>
<circle fill="#FFFFFF" cx="284.438" cy="55.989" r="0.625"/>
<circle fill="#FFFFFF" cx="286.375" cy="56.614" r="0.625"/>
<circle fill="#FFFFFF" cx="288.438" cy="56.879" r="0.625"/>
<circle fill="#FFFFFF" cx="284.438" cy="35.989" r="0.625"/>
<circle fill="#FFFFFF" cx="286.375" cy="36.614" r="0.625"/>
<circle fill="#FFFFFF" cx="288.438" cy="36.879" r="0.625"/>
</svg>
