<?xml version="1.0" encoding="utf-8"?>
<!-- Generator: Adobe Illustrator 16.0.3, SVG Export Plug-In . SVG Version: 6.00 Build 0)  -->
<!DOCTYPE svg PUBLIC "-//W3C//DTD SVG 1.1//EN" "http://www.w3.org/Graphics/SVG/1.1/DTD/svg11.dtd">
<svg version="1.1" id="Capa_1" xmlns="http://www.w3.org/2000/svg" xmlns:xlink="http://www.w3.org/1999/xlink" x="0px" y="0px"
	 width="600px" height="150px" viewBox="0 0 600 150" enable-background="new 0 0 600 150" xml:space="preserve">
<path fill="#47A43F" d="M291.08,67.092c0,0.28-0.23,0.52-0.52,0.52c-0.291,0-0.521-0.24-0.521-0.52c0-0.29,0.229-0.52,0.521-0.52
	C290.85,66.572,291.08,66.803,291.08,67.092z"/>
<path fill="#47A43F" d="M292.689,67.612c0,0.29-0.229,0.52-0.52,0.52s-0.52-0.23-0.52-0.52c0-0.29,0.229-0.52,0.52-0.52
	S292.689,67.322,292.689,67.612z"/>
<path fill="#47A43F" d="M294.41,67.833c0,0.29-0.23,0.52-0.52,0.52c-0.291,0-0.521-0.23-0.521-0.52s0.229-0.52,0.521-0.52
	C294.18,67.313,294.41,67.542,294.41,67.833z"/>
<path fill="#47A43F" d="M290.561,58.232c-0.291,0-0.521,0.24-0.521,0.52c0,0.29,0.229,0.52,0.521,0.52c0.289,0,0.52-0.23,0.52-0.52
	C291.08,58.473,290.85,58.232,290.561,58.232z M290.561,49.902c-0.291,0-0.521,0.23-0.521,0.52s0.229,0.52,0.521,0.52
	c0.289,0,0.52-0.23,0.52-0.52S290.85,49.902,290.561,49.902z M292.17,58.752c-0.29,0-0.52,0.24-0.52,0.52
	c0,0.29,0.229,0.53,0.52,0.53s0.52-0.24,0.52-0.53C292.689,58.993,292.46,58.752,292.17,58.752z M292.17,50.422
	c-0.29,0-0.52,0.23-0.52,0.52s0.229,0.52,0.52,0.52s0.52-0.23,0.52-0.52S292.46,50.422,292.17,50.422z M293.891,58.982
	c-0.291,0-0.521,0.23-0.521,0.52c0,0.28,0.229,0.52,0.521,0.52c0.289,0,0.52-0.24,0.52-0.52
	C294.41,59.212,294.18,58.982,293.891,58.982z M293.891,50.643c-0.291,0-0.521,0.24-0.521,0.52c0,0.29,0.229,0.52,0.521,0.52
	c0.289,0,0.52-0.23,0.52-0.52C294.41,50.882,294.18,50.643,293.891,50.643z M293.891,58.982c-0.291,0-0.521,0.23-0.521,0.52
	c0,0.28,0.229,0.52,0.521,0.52c0.289,0,0.52-0.24,0.52-0.52C294.41,59.212,294.18,58.982,293.891,58.982z M292.17,58.752
	c-0.29,0-0.52,0.24-0.52,0.52c0,0.29,0.229,0.53,0.52,0.53s0.52-0.24,0.52-0.53C292.689,58.993,292.46,58.752,292.17,58.752z
	 M290.561,58.232c-0.291,0-0.521,0.24-0.521,0.52c0,0.29,0.229,0.52,0.521,0.52c0.289,0,0.52-0.23,0.52-0.52
	C291.08,58.473,290.85,58.232,290.561,58.232z M293.891,50.643c-0.291,0-0.521,0.24-0.521,0.52c0,0.29,0.229,0.52,0.521,0.52
	c0.289,0,0.52-0.23,0.52-0.52C294.41,50.882,294.18,50.643,293.891,50.643z M292.17,50.422c-0.29,0-0.52,0.23-0.52,0.52
	s0.229,0.52,0.52,0.52s0.52-0.23,0.52-0.52S292.46,50.422,292.17,50.422z M290.561,49.902c-0.291,0-0.521,0.23-0.521,0.52
	s0.229,0.52,0.521,0.52c0.289,0,0.52-0.23,0.52-0.52S290.85,49.902,290.561,49.902z M290.561,58.232c-0.291,0-0.521,0.24-0.521,0.52
	c0,0.29,0.229,0.52,0.521,0.52c0.289,0,0.52-0.23,0.52-0.52C291.08,58.473,290.85,58.232,290.561,58.232z M290.561,49.902
	c-0.291,0-0.521,0.23-0.521,0.52s0.229,0.52,0.521,0.52c0.289,0,0.52-0.23,0.52-0.52S290.85,49.902,290.561,49.902z M292.17,58.752
	c-0.29,0-0.52,0.24-0.52,0.52c0,0.29,0.229,0.53,0.52,0.53s0.52-0.24,0.52-0.53C292.689,58.993,292.46,58.752,292.17,58.752z
	 M292.17,50.422c-0.29,0-0.52,0.23-0.52,0.52s0.229,0.52,0.52,0.52s0.52-0.23,0.52-0.52S292.46,50.422,292.17,50.422z
	 M293.891,58.982c-0.291,0-0.521,0.23-0.521,0.52c0,0.28,0.229,0.52,0.521,0.52c0.289,0,0.52-0.24,0.52-0.52
	C294.41,59.212,294.18,58.982,293.891,58.982z M293.891,50.643c-0.291,0-0.521,0.24-0.521,0.52c0,0.29,0.229,0.52,0.521,0.52
	c0.289,0,0.52-0.23,0.52-0.52C294.41,50.882,294.18,50.643,293.891,50.643z M293.891,58.982c-0.291,0-0.521,0.23-0.521,0.52
	c0,0.28,0.229,0.52,0.521,0.52c0.289,0,0.52-0.24,0.52-0.52C294.41,59.212,294.18,58.982,293.891,58.982z M292.17,58.752
	c-0.29,0-0.52,0.24-0.52,0.52c0,0.29,0.229,0.53,0.52,0.53s0.52-0.24,0.52-0.53C292.689,58.993,292.46,58.752,292.17,58.752z
	 M290.561,58.232c-0.291,0-0.521,0.24-0.521,0.52c0,0.29,0.229,0.52,0.521,0.52c0.289,0,0.52-0.23,0.52-0.52
	C291.08,58.473,290.85,58.232,290.561,58.232z M293.891,50.643c-0.291,0-0.521,0.24-0.521,0.52c0,0.29,0.229,0.52,0.521,0.52
	c0.289,0,0.52-0.23,0.52-0.52C294.41,50.882,294.18,50.643,293.891,50.643z M292.17,50.422c-0.29,0-0.52,0.23-0.52,0.52
	s0.229,0.52,0.52,0.52s0.52-0.23,0.52-0.52S292.46,50.422,292.17,50.422z M290.561,49.902c-0.291,0-0.521,0.23-0.521,0.52
	s0.229,0.52,0.521,0.52c0.289,0,0.52-0.23,0.52-0.52S290.85,49.902,290.561,49.902z M252.67,28.353v94.67h94.66v-94.67H252.67z
	 M312.05,52.603c-0.06,0.05-0.12,0.11-0.18,0.16c-0.2,0.16-0.431,0.31-0.71,0.48c-0.381,0.22-0.83,0.43-1.391,0.64
	c-0.359,0.13-0.761,0.25-1.199,0.37c-0.221,0.06-0.461,0.12-0.711,0.17c-0.25,0.06-0.51,0.11-0.789,0.16
	c-1.37,0.25-3.07,0.43-5.17,0.48c-0.211,0.01-0.432,0.01-0.65,0.01c-0.221,0.01-0.439,0.01-0.66,0.01c-0.63,0-1.23-0.01-1.811-0.03
	c-0.279-0.01-0.549-0.02-0.819-0.04c-1.36-0.07-2.55-0.2-3.59-0.37c-0.25-0.04-0.49-0.08-0.72-0.13c-0.23-0.04-0.45-0.09-0.67-0.14
	c-0.25-0.06-0.49-0.11-0.721-0.17s-0.449-0.13-0.66-0.19c-0.42-0.13-0.8-0.26-1.14-0.4c-0.58-0.24-1.06-0.48-1.46-0.72
	c-0.1-0.06-0.189-0.12-0.279-0.18c-0.131-0.09-0.25-0.18-0.361-0.26c-0.1-0.09-0.199-0.17-0.289-0.25v0.01
	c-0.59-0.54-0.74-0.94-0.74-0.94v-6.94c0,0.23,0.189,3.88,12.79,3.88c12.54,0,12.76-3.61,12.76-3.87l0.04,6.99
	C312.92,51.333,312.84,51.902,312.05,52.603z M287.189,53.703l0.281-0.27l0.529-0.49c0.98,1.15,3.88,2.77,12.27,2.77
	c8.181,0,11.121-1.55,12.17-2.69l0.479,0.5v6.46c0,0-0.021,0.53-0.79,1.18c-0.029,0.03-0.07,0.06-0.109,0.09
	c-0.069,0.06-0.149,0.12-0.229,0.17c-0.2,0.14-0.44,0.28-0.72,0.42c-0.12,0.06-0.25,0.12-0.391,0.18
	c-1.761,0.78-4.931,1.47-10.611,1.47c-0.299,0-0.59,0-0.869-0.01c-0.29,0-0.561-0.01-0.83-0.01c-0.551-0.02-1.061-0.04-1.551-0.07
	c-0.389-0.02-0.77-0.05-1.129-0.08c-0.541-0.04-1.051-0.1-1.521-0.16c-0.319-0.04-0.62-0.08-0.899-0.13
	c-0.291-0.05-0.57-0.1-0.83-0.15c-0.26-0.05-0.51-0.11-0.74-0.16c-0.391-0.1-0.74-0.19-1.061-0.3c-0.17-0.05-0.34-0.11-0.49-0.16
	c-0.149-0.06-0.289-0.11-0.43-0.16c-0.01-0.01-0.029-0.02-0.039-0.02c-0.25-0.1-0.48-0.21-0.681-0.31
	c-0.13-0.08-0.25-0.14-0.36-0.21c-0.22-0.14-0.41-0.27-0.57-0.4c-0.85-0.7-0.879-1.29-0.879-1.29V53.703L287.189,53.703z
	 M287.189,62.183l0.5-0.47c0.98,1.15,4.261,2.55,12.65,2.55c8.189,0,11.131-1.54,12.18-2.68l0.4,0.42v6.46c0,0-0.02,0.57-0.87,1.25
	c-1.26,1.01-4.358,2.26-11.979,2.26c-7.61,0-10.721-1.28-12-2.32c-0.85-0.7-0.881-1.3-0.881-1.3V62.183z M293.891,50.643
	c-0.291,0-0.521,0.24-0.521,0.52c0,0.29,0.229,0.52,0.521,0.52c0.289,0,0.52-0.23,0.52-0.52
	C294.41,50.882,294.18,50.643,293.891,50.643z M293.891,60.022c0.289,0,0.52-0.24,0.52-0.52c0-0.29-0.23-0.52-0.52-0.52
	c-0.291,0-0.521,0.23-0.521,0.52C293.37,59.783,293.6,60.022,293.891,60.022z M292.17,50.422c-0.29,0-0.52,0.23-0.52,0.52
	s0.229,0.52,0.52,0.52s0.52-0.23,0.52-0.52S292.46,50.422,292.17,50.422z M292.17,59.803c0.29,0,0.52-0.24,0.52-0.53
	c0-0.28-0.229-0.52-0.52-0.52s-0.52,0.24-0.52,0.52C291.65,59.563,291.88,59.803,292.17,59.803z M290.561,49.902
	c-0.291,0-0.521,0.23-0.521,0.52s0.229,0.52,0.521,0.52c0.289,0,0.52-0.23,0.52-0.52S290.85,49.902,290.561,49.902z M290.561,59.272
	c0.289,0,0.52-0.23,0.52-0.52c0-0.28-0.23-0.52-0.52-0.52c-0.291,0-0.521,0.24-0.521,0.52
	C290.04,59.042,290.27,59.272,290.561,59.272z M290.561,49.902c-0.291,0-0.521,0.23-0.521,0.52s0.229,0.52,0.521,0.52
	c0.289,0,0.52-0.23,0.52-0.52S290.85,49.902,290.561,49.902z M292.17,50.422c-0.29,0-0.52,0.23-0.52,0.52s0.229,0.52,0.52,0.52
	s0.52-0.23,0.52-0.52S292.46,50.422,292.17,50.422z M293.891,50.643c-0.291,0-0.521,0.24-0.521,0.52c0,0.29,0.229,0.52,0.521,0.52
	c0.289,0,0.52-0.23,0.52-0.52C294.41,50.882,294.18,50.643,293.891,50.643z M290.561,58.232c-0.291,0-0.521,0.24-0.521,0.52
	c0,0.29,0.229,0.52,0.521,0.52c0.289,0,0.52-0.23,0.52-0.52C291.08,58.473,290.85,58.232,290.561,58.232z M292.17,58.752
	c-0.29,0-0.52,0.24-0.52,0.52c0,0.29,0.229,0.53,0.52,0.53s0.52-0.24,0.52-0.53C292.689,58.993,292.46,58.752,292.17,58.752z
	 M293.891,58.982c-0.291,0-0.521,0.23-0.521,0.52c0,0.28,0.229,0.52,0.521,0.52c0.289,0,0.52-0.24,0.52-0.52
	C294.41,59.212,294.18,58.982,293.891,58.982z M293.891,50.643c-0.291,0-0.521,0.24-0.521,0.52c0,0.29,0.229,0.52,0.521,0.52
	c0.289,0,0.52-0.23,0.52-0.52C294.41,50.882,294.18,50.643,293.891,50.643z M293.891,58.982c-0.291,0-0.521,0.23-0.521,0.52
	c0,0.28,0.229,0.52,0.521,0.52c0.289,0,0.52-0.24,0.52-0.52C294.41,59.212,294.18,58.982,293.891,58.982z M292.17,50.422
	c-0.29,0-0.52,0.23-0.52,0.52s0.229,0.52,0.52,0.52s0.52-0.23,0.52-0.52S292.46,50.422,292.17,50.422z M292.17,58.752
	c-0.29,0-0.52,0.24-0.52,0.52c0,0.29,0.229,0.53,0.52,0.53s0.52-0.24,0.52-0.53C292.689,58.993,292.46,58.752,292.17,58.752z
	 M290.561,49.902c-0.291,0-0.521,0.23-0.521,0.52s0.229,0.52,0.521,0.52c0.289,0,0.52-0.23,0.52-0.52S290.85,49.902,290.561,49.902z
	 M290.561,58.232c-0.291,0-0.521,0.24-0.521,0.52c0,0.29,0.229,0.52,0.521,0.52c0.289,0,0.52-0.23,0.52-0.52
	C291.08,58.473,290.85,58.232,290.561,58.232z M290.561,58.232c-0.291,0-0.521,0.24-0.521,0.52c0,0.29,0.229,0.52,0.521,0.52
	c0.289,0,0.52-0.23,0.52-0.52C291.08,58.473,290.85,58.232,290.561,58.232z M292.17,58.752c-0.29,0-0.52,0.24-0.52,0.52
	c0,0.29,0.229,0.53,0.52,0.53s0.52-0.24,0.52-0.53C292.689,58.993,292.46,58.752,292.17,58.752z M293.891,58.982
	c-0.291,0-0.521,0.23-0.521,0.52c0,0.28,0.229,0.52,0.521,0.52c0.289,0,0.52-0.24,0.52-0.52
	C294.41,59.212,294.18,58.982,293.891,58.982z M293.891,58.982c-0.291,0-0.521,0.23-0.521,0.52c0,0.28,0.229,0.52,0.521,0.52
	c0.289,0,0.52-0.24,0.52-0.52C294.41,59.212,294.18,58.982,293.891,58.982z M292.17,58.752c-0.29,0-0.52,0.24-0.52,0.52
	c0,0.29,0.229,0.53,0.52,0.53s0.52-0.24,0.52-0.53C292.689,58.993,292.46,58.752,292.17,58.752z M290.561,58.232
	c-0.291,0-0.521,0.24-0.521,0.52c0,0.29,0.229,0.52,0.521,0.52c0.289,0,0.52-0.23,0.52-0.52
	C291.08,58.473,290.85,58.232,290.561,58.232z"/>
<path fill="#FFFFFF" d="M312.88,44.342c0,0.26-0.22,3.87-12.76,3.87c-12.601,0-12.79-3.65-12.79-3.88v6.94c0,0,0.15,0.4,0.74,0.94
	v-0.01c0.09,0.08,0.189,0.16,0.289,0.25c0.111,0.08,0.23,0.17,0.361,0.26c0.09,0.06,0.18,0.12,0.279,0.18
	c0.4,0.24,0.88,0.48,1.46,0.72c0.34,0.14,0.72,0.27,1.14,0.4c0.211,0.06,0.43,0.13,0.66,0.19s0.471,0.11,0.721,0.17
	c0.22,0.05,0.439,0.1,0.67,0.14c0.229,0.05,0.47,0.09,0.72,0.13c1.04,0.17,2.229,0.3,3.59,0.37c0.271,0.021,0.54,0.03,0.819,0.04
	c0.58,0.021,1.181,0.03,1.811,0.03c0.221,0,0.439,0,0.66-0.01c0.221,0,0.439,0,0.65-0.01c2.1-0.05,3.8-0.23,5.17-0.48
	c0.279-0.05,0.539-0.1,0.789-0.16c0.25-0.05,0.49-0.11,0.711-0.17c0.438-0.12,0.84-0.24,1.199-0.37c0.561-0.21,1.01-0.42,1.391-0.64
	c0.279-0.17,0.51-0.32,0.71-0.48c0.06-0.05,0.12-0.11,0.18-0.16c0.79-0.7,0.87-1.27,0.87-1.27L312.88,44.342z M290.561,50.942
	c-0.291,0-0.521-0.23-0.521-0.52s0.229-0.52,0.521-0.52c0.289,0,0.52,0.23,0.52,0.52S290.85,50.942,290.561,50.942z M292.17,51.462
	c-0.29,0-0.52-0.23-0.52-0.52s0.229-0.52,0.52-0.52s0.52,0.23,0.52,0.52S292.46,51.462,292.17,51.462z M293.891,51.683
	c-0.291,0-0.521-0.23-0.521-0.52c0-0.28,0.229-0.52,0.521-0.52c0.289,0,0.52,0.24,0.52,0.52
	C294.41,51.453,294.18,51.683,293.891,51.683z"/>
<path fill="#FFFFFF" d="M312.439,53.022c-1.051,1.14-3.989,2.69-12.17,2.69c-8.39,0-11.289-1.62-12.27-2.77l-0.529,0.49l-0.281,0.27
	v6.17c0,0,0.031,0.59,0.881,1.29c0.16,0.13,0.35,0.26,0.57,0.4c0.109,0.07,0.229,0.13,0.359,0.21c0.2,0.1,0.43,0.21,0.68,0.31
	c0.01,0,0.03,0.01,0.041,0.02c0.139,0.05,0.279,0.1,0.43,0.16c0.149,0.05,0.32,0.11,0.49,0.16c0.319,0.11,0.67,0.2,1.06,0.3
	c0.229,0.05,0.479,0.11,0.739,0.16c0.261,0.05,0.541,0.1,0.83,0.15c0.28,0.05,0.58,0.09,0.9,0.13c0.471,0.06,0.98,0.12,1.52,0.16
	c0.36,0.03,0.74,0.06,1.131,0.08c0.49,0.03,1,0.05,1.55,0.07c0.271,0,0.54,0.01,0.83,0.01c0.28,0.01,0.569,0.01,0.87,0.01
	c5.68,0,8.85-0.69,10.609-1.47c0.141-0.06,0.271-0.12,0.391-0.18c0.279-0.14,0.521-0.28,0.721-0.42c0.08-0.05,0.16-0.11,0.229-0.17
	c0.041-0.03,0.08-0.06,0.11-0.09c0.771-0.65,0.79-1.18,0.79-1.18v-6.46L312.439,53.022z M290.561,59.272
	c-0.291,0-0.521-0.23-0.521-0.52c0-0.28,0.229-0.52,0.521-0.52c0.289,0,0.52,0.24,0.52,0.52
	C291.08,59.042,290.85,59.272,290.561,59.272z M292.17,59.803c-0.29,0-0.52-0.24-0.52-0.53c0-0.28,0.229-0.52,0.52-0.52
	s0.52,0.24,0.52,0.52C292.689,59.563,292.46,59.803,292.17,59.803z M293.891,60.022c-0.291,0-0.521-0.24-0.521-0.52
	c0-0.29,0.229-0.52,0.521-0.52c0.289,0,0.52,0.23,0.52,0.52C294.41,59.783,294.18,60.022,293.891,60.022z"/>
<path fill="#FFFFFF" d="M312.52,61.583c-1.049,1.14-3.988,2.68-12.18,2.68c-8.39,0-11.67-1.4-12.65-2.55l-0.5,0.47v6.17
	c0,0,0.031,0.6,0.881,1.3c1.279,1.04,4.39,2.32,12,2.32c7.621,0,10.72-1.25,11.979-2.26c0.851-0.68,0.87-1.25,0.87-1.25v-6.46
	L312.52,61.583z M290.561,67.612c-0.291,0-0.521-0.24-0.521-0.52c0-0.29,0.229-0.52,0.521-0.52c0.289,0,0.52,0.229,0.52,0.52
	C291.08,67.373,290.85,67.612,290.561,67.612z M292.17,68.132c-0.29,0-0.52-0.23-0.52-0.52c0-0.29,0.229-0.52,0.52-0.52
	s0.52,0.23,0.52,0.52C292.689,67.902,292.46,68.132,292.17,68.132z M293.891,68.353c-0.291,0-0.521-0.23-0.521-0.52
	s0.229-0.52,0.521-0.52c0.289,0,0.52,0.23,0.52,0.52S294.18,68.353,293.891,68.353z"/>
<g>
	<path fill="#FFFFFF" d="M266.952,105.499v-5.772c1.045,0.875,2.182,1.534,3.409,1.977c1.228,0.439,2.466,0.656,3.718,0.656
		c0.733,0,1.375-0.065,1.921-0.197s1.004-0.314,1.371-0.549c0.365-0.236,0.641-0.512,0.82-0.832
		c0.181-0.317,0.271-0.664,0.271-1.035c0-0.506-0.145-0.958-0.434-1.355c-0.288-0.396-0.682-0.766-1.182-1.099
		c-0.5-0.339-1.092-0.662-1.777-0.976c-0.686-0.313-1.426-0.631-2.219-0.957c-2.021-0.842-3.527-1.869-4.521-3.086
		c-0.992-1.213-1.489-2.682-1.489-4.401c0-1.347,0.271-2.507,0.813-3.474s1.277-1.765,2.211-2.392
		c0.932-0.625,2.012-1.084,3.238-1.379c1.226-0.294,2.525-0.442,3.896-0.442c1.348,0,2.541,0.082,3.582,0.242
		c1.04,0.163,1.999,0.412,2.877,0.75v5.395c-0.434-0.301-0.904-0.565-1.417-0.795c-0.511-0.228-1.037-0.418-1.579-0.568
		s-1.079-0.261-1.615-0.333c-0.535-0.072-1.043-0.108-1.523-0.108c-0.662,0-1.264,0.063-1.805,0.189
		c-0.541,0.126-0.998,0.303-1.371,0.531s-0.662,0.502-0.865,0.82c-0.205,0.318-0.309,0.676-0.309,1.074
		c0,0.434,0.115,0.821,0.344,1.162c0.229,0.346,0.554,0.67,0.975,0.975c0.421,0.307,0.934,0.606,1.534,0.901s1.28,0.601,2.039,0.911
		c1.034,0.434,1.963,0.895,2.788,1.38c0.824,0.487,1.529,1.038,2.119,1.651c0.588,0.613,1.039,1.313,1.354,2.102
		c0.313,0.788,0.469,1.706,0.469,2.752c0,1.443-0.273,2.655-0.822,3.637c-0.547,0.979-1.289,1.772-2.228,2.381
		c-0.938,0.606-2.03,1.043-3.274,1.31c-1.244,0.265-2.56,0.396-3.942,0.396c-1.419,0-2.769-0.119-4.05-0.359
		C269,106.342,267.891,105.98,266.952,105.499z"/>
	<path fill="#FFFFFF" d="M308.561,103.684c0.08-0.08,0.16-0.15,0.229-0.23c0.08-0.08,0.149-0.159,0.239-0.239
		c2.371-2.511,3.551-5.79,3.551-9.841c0-3.971-1.141-7.148-3.43-9.561c-2.271-2.42-5.25-3.629-8.95-3.629
		c-3.921,0-7.06,1.27-9.41,3.789c-2.37,2.541-3.56,5.851-3.56,9.93c0,3.861,1.17,7,3.5,9.431c2.33,2.41,5.35,3.61,9.06,3.61
		c1.36,0,2.601-0.149,3.729-0.45l3.431,3.479h8.159L308.561,103.684z M304.68,99.742c-1.18,1.449-2.77,2.17-4.779,2.17
		c-1.95,0-3.53-0.75-4.73-2.239c-1.199-1.489-1.8-3.521-1.8-6.08c0-2.53,0.601-4.55,1.8-6.079c1.21-1.541,2.84-2.312,4.87-2.312
		c2,0,3.56,0.739,4.69,2.229c1.148,1.51,1.72,3.601,1.72,6.271C306.45,96.264,305.859,98.271,304.68,99.742z"/>
	<path fill="#FFFFFF" d="M332.285,106.492h-15.41V80.62h5.827v21.146h9.583V106.492z"/>
</g>
<path fill="#22485F" d="M312.88,44.322v0.02c0,0.26-0.22,3.87-12.76,3.87c-12.601,0-12.79-3.65-12.79-3.88v-0.01
	c0,0-0.28-2.85,13.26-2.85S312.88,44.322,312.88,44.322z"/>
<path fill="#1981B4" d="M288.359,52.453c-0.109-0.08-0.199-0.16-0.289-0.24v-0.01C288.16,52.283,288.26,52.362,288.359,52.453z"/>
<path fill="#1981B4" d="M291.08,50.422c0,0.29-0.23,0.52-0.52,0.52c-0.291,0-0.521-0.23-0.521-0.52s0.229-0.52,0.521-0.52
	C290.85,49.902,291.08,50.132,291.08,50.422z"/>
<path fill="#1981B4" d="M291.6,54.013c-0.42-0.12-0.8-0.26-1.14-0.4C290.8,53.752,291.18,53.882,291.6,54.013z"/>
<path fill="#1981B4" d="M292.689,50.942c0,0.29-0.229,0.52-0.52,0.52s-0.52-0.23-0.52-0.52s0.229-0.52,0.52-0.52
	S292.689,50.652,292.689,50.942z"/>
<path fill="#1981B4" d="M294.41,51.163c0,0.29-0.23,0.52-0.52,0.52c-0.291,0-0.521-0.23-0.521-0.52c0-0.28,0.229-0.52,0.521-0.52
	C294.18,50.643,294.41,50.882,294.41,51.163z"/>
<path fill="#1981B4" d="M312.05,52.603v0.01c-0.05,0.05-0.108,0.1-0.18,0.15C311.93,52.712,311.99,52.652,312.05,52.603z"/>
<path fill="#22485F" d="M300.12,73.143c-12.2,0-12.05-3.33-12.05-3.33v-0.16c1.279,1.04,4.39,2.32,12,2.32
	c7.621,0,10.72-1.25,11.979-2.26v0.45C312.05,70.163,312.33,73.143,300.12,73.143z"/>
<path fill="#22485F" d="M312.439,53.022c-1.051,1.14-3.989,2.69-12.17,2.69c-8.39,0-11.289-1.62-12.27-2.77l0.07-0.08v-0.66
	c0.09,0.08,0.189,0.16,0.289,0.25c0.111,0.08,0.23,0.17,0.361,0.26c0.09,0.06,0.18,0.12,0.279,0.18c0.4,0.24,0.88,0.48,1.46,0.72
	c0.34,0.14,0.72,0.27,1.14,0.4c0.211,0.06,0.43,0.13,0.66,0.19s0.471,0.11,0.721,0.17c0.22,0.05,0.439,0.1,0.67,0.14
	c0.229,0.05,0.47,0.09,0.72,0.13c1.04,0.17,2.229,0.3,3.59,0.37c0.271,0.021,0.54,0.03,0.819,0.04c0.58,0.021,1.181,0.03,1.811,0.03
	c0.221,0,0.439,0,0.66-0.01c0.221,0,0.439,0,0.65-0.01c2.1-0.05,3.8-0.23,5.17-0.48c0.279-0.05,0.539-0.1,0.789-0.16
	c0.25-0.05,0.49-0.11,0.711-0.17c0.438-0.12,0.84-0.24,1.199-0.37c0.561-0.21,1.01-0.42,1.391-0.64c0.279-0.17,0.51-0.32,0.71-0.48
	c0.06-0.05,0.12-0.11,0.18-0.16v0.01L312.439,53.022z"/>
<path fill="#1981B4" d="M291.08,58.752c0,0.29-0.23,0.52-0.52,0.52c-0.291,0-0.521-0.23-0.521-0.52c0-0.28,0.229-0.52,0.521-0.52
	C290.85,58.232,291.08,58.473,291.08,58.752z"/>
<path fill="#1981B4" d="M291.7,62.723c-0.39-0.09-0.74-0.19-1.06-0.3C290.96,62.533,291.311,62.623,291.7,62.723z"/>
<path fill="#1981B4" d="M292.689,59.272c0,0.29-0.229,0.53-0.52,0.53s-0.52-0.24-0.52-0.53c0-0.28,0.229-0.52,0.52-0.52
	S292.689,58.993,292.689,59.272z"/>
<path fill="#1981B4" d="M294.41,59.502c0,0.28-0.23,0.52-0.52,0.52c-0.291,0-0.521-0.24-0.521-0.52c0-0.29,0.229-0.52,0.521-0.52
	C294.18,58.982,294.41,59.212,294.41,59.502z"/>
<path fill="#1981B4" d="M291.08,67.092c0,0.28-0.23,0.52-0.52,0.52c-0.291,0-0.521-0.24-0.521-0.52c0-0.29,0.229-0.52,0.521-0.52
	C290.85,66.572,291.08,66.803,291.08,67.092z"/>
<path fill="#1981B4" d="M292.689,67.612c0,0.29-0.229,0.52-0.52,0.52s-0.52-0.23-0.52-0.52c0-0.29,0.229-0.52,0.52-0.52
	S292.689,67.322,292.689,67.612z"/>
<path fill="#1981B4" d="M294.41,67.833c0,0.29-0.23,0.52-0.52,0.52c-0.291,0-0.521-0.23-0.521-0.52s0.229-0.52,0.521-0.52
	C294.18,67.313,294.41,67.542,294.41,67.833z"/>
<path fill="#1981B4" d="M312.52,61.583c-1.049,1.14-3.988,2.68-12.18,2.68c-8.39,0-11.67-1.4-12.65-2.55l0.381-0.36v-0.19
	c0.16,0.13,0.35,0.26,0.57,0.4c0.109,0.07,0.229,0.13,0.359,0.21c0.2,0.1,0.43,0.21,0.68,0.31c0.01,0,0.03,0.01,0.041,0.02
	c0.139,0.05,0.279,0.1,0.43,0.16c0.149,0.05,0.32,0.11,0.49,0.16c0.319,0.11,0.67,0.2,1.06,0.3c0.229,0.05,0.479,0.11,0.739,0.16
	c0.261,0.05,0.541,0.1,0.83,0.15c0.28,0.05,0.58,0.09,0.9,0.13c0.471,0.06,0.98,0.12,1.52,0.16c0.36,0.03,0.74,0.06,1.131,0.08
	c0.49,0.03,1,0.05,1.55,0.07c0.271,0,0.54,0.01,0.83,0.01c0.28,0.01,0.569,0.01,0.87,0.01c5.68,0,8.85-0.69,10.609-1.47
	c0.141-0.06,0.271-0.12,0.391-0.18c0.279-0.14,0.521-0.28,0.721-0.42c0.08-0.05,0.16-0.11,0.229-0.17
	c0.041-0.03,0.08-0.06,0.11-0.09L312.52,61.583z"/>
<path fill="#22485F" d="M312.52,61.583c-1.049,1.14-3.988,2.68-12.18,2.68c-8.39,0-11.67-1.4-12.65-2.55l0.381-0.36v-0.19
	c1.25,1.13,4.56,2.47,12.6,2.47c6.63,0,9.7-1.17,11.12-2.21c0.08-0.05,0.16-0.11,0.229-0.17c0.039-0.03,0.08-0.06,0.109-0.09
	L312.52,61.583z"/>
<path fill="#47A43F" d="M291.08,58.752c0,0.29-0.23,0.52-0.52,0.52c-0.291,0-0.521-0.23-0.521-0.52c0-0.28,0.229-0.52,0.521-0.52
	C290.85,58.232,291.08,58.473,291.08,58.752z"/>
<path fill="#47A43F" d="M292.689,59.272c0,0.29-0.229,0.53-0.52,0.53s-0.52-0.24-0.52-0.53c0-0.28,0.229-0.52,0.52-0.52
	S292.689,58.993,292.689,59.272z"/>
<path fill="#47A43F" d="M294.41,59.502c0,0.28-0.23,0.52-0.52,0.52c-0.291,0-0.521-0.24-0.521-0.52c0-0.29,0.229-0.52,0.521-0.52
	C294.18,58.982,294.41,59.212,294.41,59.502z"/>
<path fill="#47A43F" d="M291.08,67.092c0,0.28-0.23,0.52-0.52,0.52c-0.291,0-0.521-0.24-0.521-0.52c0-0.29,0.229-0.52,0.521-0.52
	C290.85,66.572,291.08,66.803,291.08,67.092z"/>
<path fill="#47A43F" d="M292.689,67.612c0,0.29-0.229,0.52-0.52,0.52s-0.52-0.23-0.52-0.52c0-0.29,0.229-0.52,0.52-0.52
	S292.689,67.322,292.689,67.612z"/>
<path fill="#47A43F" d="M294.41,67.833c0,0.29-0.23,0.52-0.52,0.52c-0.291,0-0.521-0.23-0.521-0.52s0.229-0.52,0.521-0.52
	C294.18,67.313,294.41,67.542,294.41,67.833z"/>
<path fill="#47A43F" d="M291.08,50.422c0,0.29-0.23,0.52-0.52,0.52c-0.291,0-0.521-0.23-0.521-0.52s0.229-0.52,0.521-0.52
	C290.85,49.902,291.08,50.132,291.08,50.422z"/>
<path fill="#47A43F" d="M292.689,50.942c0,0.29-0.229,0.52-0.52,0.52s-0.52-0.23-0.52-0.52s0.229-0.52,0.52-0.52
	S292.689,50.652,292.689,50.942z"/>
<path fill="#47A43F" d="M294.41,51.163c0,0.29-0.23,0.52-0.52,0.52c-0.291,0-0.521-0.23-0.521-0.52c0-0.28,0.229-0.52,0.521-0.52
	C294.18,50.643,294.41,50.882,294.41,51.163z"/>
<path fill="none" d="M313.456,69.953"/>
</svg>
