<?xml version="1.0" encoding="utf-8"?>
<!-- Generator: Adobe Illustrator 16.0.3, SVG Export Plug-In . SVG Version: 6.00 Build 0)  -->
<!DOCTYPE svg PUBLIC "-//W3C//DTD SVG 1.1//EN" "http://www.w3.org/Graphics/SVG/1.1/DTD/svg11.dtd">
<svg version="1.1" id="Capa_1" xmlns="http://www.w3.org/2000/svg" xmlns:xlink="http://www.w3.org/1999/xlink" x="0px" y="0px"
	 width="600px" height="400px" viewBox="0 0 600 400" enable-background="new 0 0 600 400" xml:space="preserve">
<path fill="#16306D" d="M227.167,154.583c0,0,0.917,0.417,1.167,0s1-0.667,1-0.667s0.833,0.352,1.167,0.426s0.833,0.277,2.083,0.426
	s3.667,0.565,3.667,0.565s4.167,2.417,4.583,6.5s4.833,37.333,5.833,37.333s1.333-0.084,2.917-4.667s1.917-5.583,2.583-6.667
	s1.167-0.667,1-1.833s-0.167-1.75,0.5-2.5s1.333-1.5,1.583-2.25s0.167-1.5,0.417-2.583s0.25-0.917,0.75-1.417s0.667-1.75,1-2.833
	s0.083-1.583,1.417-3.25s1.417-1.417,2.333-3.25s-0.167-1.917,2.417-2.25s7.333,2.5,7.917,5.167s2.583,6,3.333,6.667
	s2.167,4.75,3.167,7.75s0.917,3.083,2,4s1,2.917,1.5,4.25s2.75,5.25,3.333,5.25s0.333-0.75,1.083-2.75s0.5-8.417,0.667-10.25
	s0.667-2.916,0.75-3.583s-0.833-0.833-0.833-0.833s1.083-6.25,2.25-6.583s1.75,0.084,2-0.583s1.167-7.083,1.25-8.25s0-1.417,0-1.417
	s0.157-0.25,0.037-0.667s0.544-1.25,0.045-1.5s-0.916-0.667-0.583-1.167s0.917-0.25,1.5-0.917s0.667-0.5,0.75-2.75
	s0.22-7.083,0.86-8s5.724-8.916,6.557-8.333s1.334,1.167,2.167,0.917s7.166-4.833,8.583-4.5s1.583,1.833,2.25,2.667s2,1.833,2.25,2
	s-0.083,0.667-1,1.167s0,4.25-0.5,4.917s-0.583,0.833-0.5,1.667s0,0.917-0.5,1.917s-2.417,5.417-2.25,6.5s-0.251,3.083-0.667,4.917
	s-0.166,4.316-0.416,5.033s-0.918,0.466-0.834,1.383s0.75,1.167,0.5,1.917s-0.584,0.25-0.75,1.5s-0.833,3.167-0.833,3.917
	s0.083,0.833-0.167,2.5s-0.333,0.667-0.583,2.667s-0.417,2.583-0.75,4.5s0.501,2.167-0.583,3.333S302.5,196,302.5,196
	s-2.333,10.416-2.5,10.75s-1.417,5.834-1.417,5.834s0,2.749-0.167,3.416s-0.25,1.667-0.25,1.667s-5.417,3.666-8.333,3.583
	s-5.583-1.334-6.417-2.5s-5.75-5.999-5.667-6.416s0.417-0.418-0.583-1.834s-2.083-3.166-2.5-3.416S274,205.416,274,205
	c0,0,3.334,5.167,4.167,5.417s0.25-0.75,0.25-1s-1.75-2.667-2.167-2.917s-1.333-2-1.333-2.333s-0.334-0.917-0.667-2
	s-0.583-1.5-0.833-2.167s-1.503-2.333-1.585-2.5s-0.165-0.583-0.749-0.5s-0.583,0.417-0.333,1s-0.75-0.167-0.833-1.167
	s-0.417-1.75-0.5-2.167s-1-2.084-1.333-2.667s-1.167-2.417-1.583-3.167s-0.667-2.75-1.5-1.833s-1.416,3.084-1.833,4.417
	s-3.167,6.833-3.083,7.667s0,1.334-0.5,2.25s-1.25,1.318-1.417,2.409s0.417,0.923-0.583,1.757s-0.75,1.084-1.417,2.834
	s-1.75,6.25-3.25,7.583s-3.917,1.5-4.167,2.25s-0.5,1.583-1.083,1.833s0.833,0.5-1.833,0.167s-5.583-1.583-6.417-3.25
	s-1.25-1.75-1.417-2.5s-0.333-3.249-1-4.083s-0.833-0.917-1.417-1.417s1.5-0.083,1.833-0.583s0.583-1.583-0.083-1.5
	s-0.417-0.333-0.25-1s0-4.167-0.167-4.917s-0.333-1.75-1-3.417s-1.5-5.917-2.333-4.75s-0.333,0.583-0.25,2s0.75,3.25,0.583,3.833
	S233.25,200,233.25,200s0.083-1.583-0.167-3.083s-1.417-7.583-1.667-8.5s-0.833-1.834-0.833-2.917s-0.75-4.417-0.75-5.5
	s-0.25-2.75-0.167-3.833s0.25-2.167-0.083-2.583s-0.5-1.083-0.5-2s-0.25-2.083-0.833-2.917s-1,0.25-1.083-1.5s-0.333-2.083,0-2.833
	s0.75-0.917,0.583-1.917s-0.751-2.25-0.751-2.25s-0.082,0.583-0.415-1s-0.75-1.25,0-2.167s0.333-1.5,0.167-1.75
	S226.513,154.405,227.167,154.583z"/>
<path fill="#AD0B0B" d="M186.5,175.5c0,0-1.833,5.334-2.333,8.167S182,199,180.833,199.167c0,0-0.333,4-0.833,4.5
	c0,0,0.5-33.167,16.25-59.333c0,0-9.75,12.917-13,27.833c0,0,1.242-5.42,4.25-11c0,0-4.833,14.167-6.333,21.5s-2,17-3.333,18.083
	c0,0-1.5-10,0.333-14.167c0,0-2.417,8.417-2.75,11.667c0,0-5.917-32.75,25.083-69s71.75-43.5,95-44s102.75,12.75,117,100
	S351,322.306,300,322.25c-43.546-0.048-112.75-19-122.75-110.75c0,0,8.083,87.667,86.25,104.334c0,0-60-17-77.833-76.5
	c0,0,7.976,27.047,30.208,47.333c0,0-11.5-10.917-14.094-17.136c0,0,4.563,7.063,8.094,8.469c0,0-15.25-21-17-32.25
	c0,0,13,30.875,32.375,43.125c0,0-29.875-28.25-32.75-50.375c0,0,4.8,15.734,17.998,32.576
	c16.469,21.016,46.014,43.754,95.627,39.799c0,0-61.375,5.625-96.625-43.875c0,0,49.25,65.75,129.25,29.25s61.5-139,17.5-169.25
	c-44.352-30.492-89-27.75-136.5,13c0,0,1-4.75,3.5-6.5c0,0-24.75,24.75-33.25,50.75c0,0-2.25-4.5-1-8.5c0,0-1.625,2.344-1.625,3
	C187.375,178.75,186.375,177.156,186.5,175.5z"/>
<path fill="#B2090E" d="M290.917,212.083c0.25-0.75,0.333-2,0.583-3.083s0.5-2.417,0.417-3.5s0.833-2.667,1.167-3.417
	s1.083-2.417,1.167-3.333s0.386-2.25,0.36-2.583s0.223-1.416,0.39-2.083s1-1.917,1.417-2.75s0.416-1.083,0.833-1.833
	s4.251-2.083,5.334-1.583s5.332,7.25,6.166,8.5s1.084,3.307,1.834,3.528s0.75,1.554,1.25,2.388s0.75-0.68,0.833,1.41
	s-1.417,2.923,0,4.59s1.999,2.668,2.333,3.334s0.5,1.666,0.667,2.583s0.577,1.584,0.83,2.167s0.17,0.332,0.67,1.416
	s0.333,0.584,0.583,1.834s0.251,0.499,0.584,2.166s0.25,2.084,0.583,3.167s-0.584,0.917,0.583,1.75s2.334,0.667,2.834-0.5
	s2.25-2.583,2.333-4.25s0.5-1.583,0.75-2.333s1.167-1.917,1.667-2.917s0.916-1.917,1.333-2.667s0.833-0.75,1.5-1.833
	s1.917-5.167,2.5-6s5.667-10.167,5.75-11.25s-0.166-2.5,0.417-3.167s1.332-1,1.916-1.333s2.666-1.667,3.25-1.5
	s1.001,0.25,1.334,0.167s0.417,0.5,1-0.417s-0.834-1.583,1.583-1.833s2.501-0.083,3.167,0s2.749,0.417,3.416,0.917
	s1.167,1.167,1.667,1.333s1.083,0.167,1,0.917s-0.167,0.5-0.417,1.417s-0.166,1.083-0.166,1.833s-1.25,0.25,0.083,1.833
	s1.749,7.32,1.833,8.577s0.5,2.008,0,2.674s-0.667,2.25-0.75,3s0,1.166,0,1.666s0.984,4.584,0.992,5.084s-0.324,1.25-0.408,2.25
	s-0.583,2.085-1,2.834s-0.5,2.998,0,3.832s1.233,1.084,1.408,0.834c0,0-0.658,1.334-0.908,1.75s0.167,0.832,0.5,1.166
	s0.316,1.001,0.408,1.334s-0.008,0.666,0,0.916s0.736,0.834,0.039,1.334s-1.114,2.25-1.114,3s-0.251,1.499,0.833,0.666
	c0,0-1.084,2.083-0.25,2.25s2.5,0,2.5,0s0.166,0.917-0.5,1.667s-1.166,1.999-1.333,3.333s-0.416,2.084-0.083,2.834
	s0.834,2,1.25,2.25s1,0.582,1.083,0.916s0.833,0.168,0,0.834s-1.5,0.916-1.25,1.333s0.333,0.917,0.833,0.667
	c0,0-0.563,0.896-0.688,1.396s0.25,1.313,0.813,1.375s1.063,0,1.063,0s-1.563,1-1.5,1.25s-0.25,0.563-0.063,1.313
	s0.125,1.125,0.188,1.563s0.188,1.25,0.188,1.625s0.625,4.313,0.375,4.875s0.188,0.5-0.563,1.375s-0.875,1.625-3,2.563
	s-6.625,1.375-7.5,0.938s-0.688-0.625-1.563-0.313s-0.75,0.625-1.563,0.188s0.625,1.75-1.188-0.75s-3.875-3.938-4-6
	s-0.375-5.563,0.188-6.438s0.938-1,1.063-1.5s0.188-0.438-0.063-1.188s-0.438-1-0.563-2.5s-0.313-2.063-0.25-3.625
	s-0.5-13.563,0.125-14.75s0.5-1.563,0.375-1.813s-0.313,0.063-0.625-0.813S342.375,220,342,218.313s-0.25-2.563-0.813-2.125
	s-5.063,8.25-6.313,10.313s-2.25,4.063-2.5,4.625s-0.438,1-0.813,1.063s-0.875,1.063-1.313,1.75s-0.875,2.5-1.688,4
	s-1.375,3.125-1.938,3.563s0.188,0.313-1.25,1.188s-0.688,0.625-1.875,1.063s-3.438,2.5-4.438,2.5s-1.75-0.375-3.375-1.25
	s-2.375-1.75-3.125-2.938s-1.188-1.625-1.563-3.313s0.438-0.75-0.688-3.625s-3.188-10.563-3.438-11.125s-0.688-2.125-0.875-3.25
	s-1.063-1.375-0.938-2s0.063-1.125,0.063-1.5s-0.438-0.188-0.875-1.375s0-3.125-0.5-2.938s-1.25,2.563-1.25,3.188
	s0.188,0.75,0.188,1.813s0,0.938,0,1.875s0.25,1.563,0.313,2.313s-0.313,2-1,2.688s-0.438,0.375-1.125,1.688
	s-0.375,3.375-0.563,4.313s0.25,2.063-0.313,2.75s-0.094,0.063-0.641,1.125s-0.609,2.938-0.547,3.25s-0.063,1.188-0.313,2.188
	s0.063,1.688-0.188,2.438s-0.313,1.25-1,1.688s-1.5,0.375-1.375,1.5s0.875,0.75,1.25,0.75s0.313-0.625,0.375,0
	s-0.563,0.125,0.063,1.563s0.875,0.875,0.625,1.938s-0.125,1-0.625,2.125s-0.313,0.938-0.688,1.563s0.125-0.25-0.875,1.125
	s-1.405,2.313-1.453,2.5s0.14,0.813-0.86,1.063s-0.625,0.875-1.375-0.125s0.063-1.938-1.125-2.5s-1.563-0.438-1.813,0.5
	s0.625,1.438,0,1.938s0.563,0.875-0.625,0.5s-1.313-0.25-1.875-0.75s-1.063-0.75-1.313-1.063s0.063-0.5-1.313-0.813
	s-1.125,1.375-1.875-0.563s-0.688-2.125-0.813-3s-0.063,0.063,0.313-1.063s0.625-2.438,0.75-2.625s0.563-3,0.875-3.813
	s1.125-2.375,1.188-2.938s-0.188-1.625,0.063-2.563s0.375-1.375,0.563-1.813s0.188-0.688,0.25-1.125s0-0.25,0.125-1.313
	s0-1.125,0.313-1.75s0.313-1.5,0.313-2.313s-0.125-1.813,0.375-2.125s1-0.938,0.875-1.5s-0.75-0.938-0.75-1.188
	s0.313-0.563,0.875-1.063s0.438-0.438,1.125-1.313s0.813-2.936,0.5-2.749s-0.75-1.313-0.313-1.938s0.313-1.438,0.625-2.188
	s0.5-1.625,0.688-2.25s0.125-0.875,0.125-1.5S290.917,212.083,290.917,212.083z"/>
<path fill="none" d="M239.744,120.98c0,0,27.52-17.943,59.76-17.614c32.239,0.329,53.081,18.766,53.081,18.766"/>
<text transform="matrix(0.8918 -0.4524 0.4524 0.8918 240.8379 120.0093)"><tspan x="0" y="0" fill="#FFFFFF" font-family="'MyriadPro-Regular'" font-size="21">D</tspan><tspan x="14.897" y="0.174" fill="#FFFFFF" font-family="'MyriadPro-Regular'" font-size="21" rotate="4.435">i</tspan><tspan x="20.523" y="0.574" fill="#FFFFFF" font-family="'MyriadPro-Regular'" font-size="21" rotate="7.392">s</tspan><tspan x="28.451" y="1.628" fill="#FFFFFF" font-family="'MyriadPro-Regular'" font-size="21" rotate="10.506">t</tspan><tspan x="34.022" y="2.639" fill="#FFFFFF" font-family="'MyriadPro-Regular'" font-size="21" rotate="13.536">r</tspan><tspan x="40.633" y="4.239" fill="#FFFFFF" font-family="'MyriadPro-Regular'" font-size="21" rotate="16.778">i</tspan><tspan x="46.005" y="5.748" fill="#FFFFFF" font-family="'MyriadPro-Regular'" font-size="21" rotate="21.265">b</tspan><tspan x="55.471" y="9.352" fill="#FFFFFF" font-family="'MyriadPro-Regular'" font-size="21" rotate="28.125">u</tspan><tspan x="64.429" y="14.201" fill="#FFFFFF" font-family="'MyriadPro-Regular'" font-size="21" rotate="32.933">i</tspan><tspan x="69.147" y="17.116" fill="#FFFFFF" font-family="'MyriadPro-Regular'" font-size="21" rotate="38.161">d</tspan><tspan x="77.114" y="23.353" fill="#FFFFFF" font-family="'MyriadPro-Regular'" font-size="21" rotate="44.732">o</tspan><tspan x="84.302" y="30.571" fill="#FFFFFF" font-family="'MyriadPro-Regular'" font-size="21" rotate="50.083">r</tspan><tspan x="88.655" y="35.673" fill="#FFFFFF" font-family="'MyriadPro-Regular'" font-size="21" rotate="55.056">e</tspan><tspan x="93.8" y="43.039" fill="#FFFFFF" font-family="'MyriadPro-Regular'" font-size="21" rotate="60.721">s</tspan></text>
</svg>
